<?xml version="1.0" encoding="UTF-8" standalone="no"?>
<svg
   xmlns:dc="http://purl.org/dc/elements/1.1/"
   xmlns:cc="http://creativecommons.org/ns#"
   xmlns:rdf="http://www.w3.org/1999/02/22-rdf-syntax-ns#"
   xmlns:svg="http://www.w3.org/2000/svg"
   xmlns="http://www.w3.org/2000/svg"
   xmlns:sodipodi="http://sodipodi.sourceforge.net/DTD/sodipodi-0.dtd"
   xmlns:inkscape="http://www.inkscape.org/namespaces/inkscape"
   width="110"
   height="100"
   viewBox="0 0 29.104168 26.458333"
   version="1.1"
   id="svg8"
   inkscape:version="1.0.2-2 (e86c870879, 2021-01-15)"
   sodipodi:docname="leftOrange1.svg">
  <defs
     id="defs2" />
  <sodipodi:namedview
     id="base"
     pagecolor="#ffffff"
     bordercolor="#666666"
     borderopacity="1.0"
     inkscape:pageopacity="0.0"
     inkscape:pageshadow="2"
     inkscape:zoom="1.4026546"
     inkscape:cx="265.08501"
     inkscape:cy="233.71092"
     inkscape:document-units="mm"
     inkscape:current-layer="layer34"
     inkscape:document-rotation="0"
     showgrid="false"
     fit-margin-top="0"
     fit-margin-left="0"
     fit-margin-right="0"
     fit-margin-bottom="0"
     showguides="true"
     inkscape:guide-bbox="true"
     inkscape:window-width="1920"
     inkscape:window-height="991"
     inkscape:window-x="831"
     inkscape:window-y="1341"
     inkscape:window-maximized="1"
     units="px"
     width="110mm"
     height="100mm">
    <sodipodi:guide
       position="76.910648,0.14790893"
       orientation="0,-1"
       id="guide2237" />
    <sodipodi:guide
       position="431.29678,0.14790893"
       orientation="0,-1"
       id="guide2245" />
    <sodipodi:guide
       position="-25.136929,0.14790893"
       orientation="1,0"
       id="guide2249" />
    <sodipodi:guide
       position="58.621329,-0.15395647"
       orientation="0,-1"
       id="guide2807" />
    <sodipodi:guide
       position="2.7940884,151.96216"
       orientation="0,-1"
       id="guide2809" />
  </sodipodi:namedview>
  <metadata
     id="metadata5">
    <rdf:RDF>
      <cc:Work
         rdf:about="">
        <dc:format>image/svg+xml</dc:format>
        <dc:type
           rdf:resource="http://purl.org/dc/dcmitype/StillImage" />
        <dc:title></dc:title>
      </cc:Work>
    </rdf:RDF>
  </metadata>
  <g
     inkscape:groupmode="layer"
     id="layer34"
     inkscape:label="fish"
     transform="translate(0.38249999,9.3352753)"
     style="display:inline">
    <g
       inkscape:groupmode="layer"
       id="layer36"
       inkscape:label="color ">
      <path
         style="display:inline;fill:#da8730;fill-opacity:1;stroke:none;stroke-width:0.53318;stroke-linecap:butt;stroke-linejoin:miter;stroke-miterlimit:4;stroke-dasharray:none;stroke-opacity:1"
         d="m 17.869411,7.5554733 c 1.414266,0.03912 2.709075,0.0064 3.184437,-0.15437 0.983671,-0.332585 1.182475,-0.843972 1.000417,-1.000412 -0.364738,-0.16645 -0.55686,-0.671007 -0.571885,-0.727857 0,0 2.099137,0.253154 1.741649,-1.09178 -0.343639,-1.292825 -1.782094,-3.012092 -3.613267,-3.353316 -1.739665,-0.32417204 -5.55447,1.162932 -6.4207,1.819628 -0.865394,0.656061 -1.440394,1.263058 -1.481698,2.209553 -0.03982,0.912285 0.233951,1.259278 1.793636,1.545222 0.588527,0.107903 1.660244,0.616472 2.822519,0.685517"
         id="path3186"
         sodipodi:nodetypes="csccsssssc" />
      <path
         style="display:inline;fill:#eaba89;fill-opacity:1;stroke:none;stroke-width:0.53318;stroke-linecap:butt;stroke-linejoin:miter;stroke-miterlimit:4;stroke-dasharray:none;stroke-opacity:1"
         d="m 18.785428,0.92879626 c -0.259948,-0.623874 -1.098279,-2.17055896 -1.956104,-2.09257696 -0.857828,0.07798 0.207956,1.71565396 -0.571886,1.50769496 -0.77984,-0.207956 -2.31353,-0.779842 -2.443504,-0.07799 -0.129976,0.701858 0.155967,0.98779904 -0.545891,0.98779904 -0.701856,0 -1.403713,-0.25994604 -1.455705,0.389922 -0.05199,0.64987 0.955307,1.553187 0.955307,1.553187"
         id="path3188"
         sodipodi:nodetypes="csssssc" />
      <path
         style="display:inline;fill:#eaba89;fill-opacity:1;stroke:none;stroke-width:0.53318;stroke-linecap:butt;stroke-linejoin:miter;stroke-miterlimit:4;stroke-dasharray:none;stroke-opacity:1"
         d="m 11.918709,4.4770753 c 0,0 -2.5238799,-2.079575 -3.1737509,-1.741644 -0.649864,0.33793 0.285944,1.039788 -0.207954,1.559682 -0.493903,0.519896 -1.42971,1.013795 -1.351727,1.533688 0.07799,0.519898 0.675861,0.415919 0.701856,1.221755 0.02599,0.805836 0.636572,1.234695 1.273743,0.831833 0.68763,-0.434766 1.0535029,-0.787132 1.5032349,-1.155302 0.757428,-0.620064 1.226213,-0.586347 1.226213,-0.586347"
         id="path3190"
         sodipodi:nodetypes="cssssssc" />
      <path
         style="fill:#eaba89;fill-opacity:1;stroke:none;stroke-width:0.352676px;stroke-linecap:butt;stroke-linejoin:miter;stroke-opacity:1"
         d="m 16.166449,6.0887503 c 0,0 -0.281718,-0.737806 0.06753,-0.719425 0.34924,0.01837 0.794152,-0.08947 1.010956,0.294097 0.216808,0.383564 0.367623,0.790385 0.459526,1.0661 0.09191,0.275716 0.164958,0.82595 0.164958,0.82595 l -1.231058,1.0673 -0.330859,-0.330859 0.01703,-0.804256 z"
         id="path3192" />
      <path
         style="fill:#eaba89;fill-opacity:1;stroke:none;stroke-width:0.352676px;stroke-linecap:butt;stroke-linejoin:miter;stroke-opacity:1"
         d="m 19.718132,1.2939003 c 0,0 -0.984336,2.696847 -0.965957,2.770369 0.01837,0.07353 0.441147,3.032877 0.441147,3.032877 0,0 0.275715,0.606574 0.441145,0.606574 0.165429,0 1.856487,-0.643337 1.948391,-0.643337 0.09191,0 0.471408,-0.659691 0.471408,-0.659691 l -0.571886,-0.727857 1.644486,-0.248365 0.238952,-0.790386 -0.974193,-1.709439 -1.654298,-1.378578 z"
         id="path3194" />
      <path
         style="fill:#e19e5a;fill-opacity:1;stroke:none;stroke-width:0.352676px;stroke-linecap:butt;stroke-linejoin:miter;stroke-opacity:1"
         d="m 12.767642,3.1968313 c 0,0 4.292256,-2.011365 5.786952,-2.050357 0.493902,0.05199 0,-0.63687204 0,-0.63687204 0,0 -0.33793,-0.584882 -1.065783,-0.168964 -0.727853,0.415914 -2.235547,1.24774604 -3.002391,1.41670904 -0.766844,0.168968 -1.494697,0.31194 -1.741648,0.519898 -0.246952,0.207957 -0.350927,0.44191 -0.298939,0.480903 0.05199,0.03899 0.321809,0.438683 0.321809,0.438683 z"
         id="path3196" />
    </g>
    <g
       inkscape:groupmode="layer"
       id="layer35"
       inkscape:label="ol 1"
       style="display:inline">
      <g
         id="g3212"
         transform="matrix(-1.3329488,0,0,1.3329488,-52.134703,-41.169685)"
         style="stroke-width:0.4;stroke-miterlimit:4;stroke-dasharray:none">
        <path
           style="fill:none;fill-opacity:1;stroke:#000000;stroke-width:0.4;stroke-linecap:butt;stroke-linejoin:miter;stroke-miterlimit:4;stroke-dasharray:none;stroke-opacity:1"
           d="m -53.278574,31.768227 c 0.195017,-0.46804 0.897078,-1.813655 1.540632,-1.755151 0.643557,0.0585 -0.156012,1.287111 0.429038,1.131097 0.585049,-0.156012 1.735648,-0.58505 1.833157,-0.05851 0.09751,0.526545 -0.117009,0.741063 0.409536,0.741063 0.526544,0 1.053089,-0.195016 1.092094,0.292526 0.039,0.487543 -0.741064,1.287111 -0.741064,1.287111"
           id="path3200" />
        <path
           style="fill:none;stroke:#000000;stroke-width:0.4;stroke-linecap:butt;stroke-linejoin:miter;stroke-miterlimit:4;stroke-dasharray:none;stroke-opacity:1"
           d="m -52.518232,36.554403 c -1.061006,0.02935 -2.032393,0.0048 -2.389017,-0.115811 -0.737966,-0.249511 -0.887112,-0.633162 -0.750529,-0.750526 0.273632,-0.124873 0.417765,-0.503401 0.429037,-0.54605 0,0 -1.574807,0.18992 -1.306613,-0.819071 0.257803,-0.969899 1.336956,-2.259721 2.710733,-2.515713 1.305125,-0.243199 4.167053,0.872451 4.816914,1.365115 0.649233,0.492188 1.080607,0.947567 1.111594,1.657643 0.02987,0.684411 -0.108277,0.744579 -1.318035,1.117881 -0.611973,0.18884 -1.273122,0.503856 -2.14508,0.555655"
           id="path3198"
           sodipodi:nodetypes="csccsssssc" />
        <path
           style="fill:none;stroke:#000000;stroke-width:0.3;stroke-linecap:round;stroke-linejoin:miter;stroke-miterlimit:4;stroke-dasharray:none;stroke-opacity:1"
           d="m -52.212387,35.422712 c 0.0195,0.546047 -0.705404,1.025917 -0.120355,1.493956 0.585049,0.46804 0.741064,0.507045 0.897078,0.409536 0.156011,-0.09751 0.156011,-0.292526 0.0195,-0.565547 -0.02765,-0.05531 -0.0369,-0.141827 -0.03406,-0.244642 0.01117,-0.404726 0.209581,-1.061971 0.209581,-1.061971"
           id="path3202"
           sodipodi:nodetypes="cssssc" />
        <path
           style="fill:none;stroke:#000000;stroke-width:0.4;stroke-linecap:butt;stroke-linejoin:miter;stroke-miterlimit:4;stroke-dasharray:none;stroke-opacity:1"
           d="m -48.053918,34.244938 c 0,0 1.893456,-1.560131 2.380999,-1.30661 0.487539,0.253521 -0.214519,0.780066 0.156011,1.170099 0.370533,0.390035 1.072592,0.760566 1.014087,1.150598 -0.05851,0.390036 -0.507042,0.312029 -0.526544,0.916581 -0.0195,0.604551 -0.477567,0.926288 -0.955583,0.624054 -0.515871,-0.326168 -0.790355,-0.590519 -1.127751,-0.866726 -0.568235,-0.465182 -0.919925,-0.439887 -0.919925,-0.439887"
           id="path3206"
           sodipodi:nodetypes="cssssssc" />
        <path
           style="fill:none;stroke:#000000;stroke-width:0.4;stroke-linecap:butt;stroke-linejoin:miter;stroke-miterlimit:4;stroke-dasharray:none;stroke-opacity:1"
           d="m -53.905174,31.856868 c 0.0025,-0.01244 0.851756,1.576675 0.731836,2.934713 -0.11564,1.309567 -0.399902,1.778878 -0.399902,1.778878"
           id="path3208"
           sodipodi:nodetypes="csc" />
        <ellipse
           style="fill:#000000;fill-opacity:1;stroke:none;stroke-width:0.4;stroke-linecap:round;stroke-linejoin:round;stroke-miterlimit:4;stroke-dasharray:none;stroke-opacity:1;paint-order:markers fill stroke"
           id="ellipse3210"
           cx="-54.462681"
           cy="33.247128"
           rx="0.26890045"
           ry="0.27579531" />
      </g>
      <path
         style="fill:none;stroke:#000000;stroke-width:0.353231;stroke-linecap:round;stroke-linejoin:round;stroke-miterlimit:4;stroke-dasharray:none;stroke-opacity:1"
         d="m 14.68138,0.80854026 c 0,0 0.870823,0.63687304 0.857827,1.06578704"
         id="path3214" />
      <path
         style="fill:none;stroke:#000000;stroke-width:0.353231;stroke-linecap:round;stroke-linejoin:round;stroke-miterlimit:4;stroke-dasharray:none;stroke-opacity:1"
         d="m 11.652992,4.9547023 c -0.06498,0 -0.922811,-0.571885 -1.650664,-0.649869"
         id="path3216" />
      <path
         style="fill:none;stroke:#000000;stroke-width:0.353231;stroke-linecap:round;stroke-linejoin:round;stroke-miterlimit:4;stroke-dasharray:none;stroke-opacity:1"
         d="m 11.497025,5.6435623 c 0,0 -1.7156529,0.311936 -2.5864769,0.831834"
         id="path3218" />
      <path
         style="fill:none;stroke:#000000;stroke-width:0.353231;stroke-linecap:round;stroke-linejoin:round;stroke-miterlimit:4;stroke-dasharray:none;stroke-opacity:1"
         d="m 17.24186,0.15867526 c 0,0 0.363927,0.805835 0.285943,1.18275804"
         id="path3220"
         sodipodi:nodetypes="cc" />
      <path
         style="fill:none;stroke:#000000;stroke-width:0.353231;stroke-linecap:round;stroke-linejoin:round;stroke-miterlimit:4;stroke-dasharray:none;stroke-opacity:1"
         d="m 12.887742,2.1602663 c 0,0 0.714858,0.01306 0.662867,0.623877"
         id="path3222" />
      <path
         style="display:inline;fill:none;stroke:#000000;stroke-width:0.200376;stroke-linecap:round;stroke-linejoin:round;stroke-miterlimit:4;stroke-dasharray:none;stroke-opacity:1"
         d="m 17.334938,2.5673203 c -0.08292,-0.0045 -0.696351,0.118726 -0.656147,0.656282 0.02056,0.27481 0.381085,0.460352 0.624043,0.42057"
         id="path3224"
         sodipodi:nodetypes="csc" />
      <path
         style="display:inline;fill:none;stroke:#000000;stroke-width:0.200376;stroke-linecap:round;stroke-linejoin:round;stroke-miterlimit:4;stroke-dasharray:none;stroke-opacity:1"
         d="m 15.625501,3.8172323 c -0.08292,-0.0045 -0.696351,0.118726 -0.656147,0.656281 0.02055,0.27481 0.381085,0.460353 0.624043,0.420571"
         id="path3226"
         sodipodi:nodetypes="csc" />
      <path
         style="display:inline;fill:none;stroke:#000000;stroke-width:0.200376;stroke-linecap:round;stroke-linejoin:round;stroke-miterlimit:4;stroke-dasharray:none;stroke-opacity:1"
         d="m 18.125324,4.2583773 c -0.08292,-0.0045 -0.696352,0.118725 -0.656147,0.656281 0.02055,0.27481 0.381085,0.460353 0.624042,0.420571"
         id="path3228"
         sodipodi:nodetypes="csc" />
    </g>
  </g>
</svg>
