<?xml version="1.0" encoding="UTF-8" standalone="no"?>
<svg
   xmlns:dc="http://purl.org/dc/elements/1.1/"
   xmlns:cc="http://creativecommons.org/ns#"
   xmlns:rdf="http://www.w3.org/1999/02/22-rdf-syntax-ns#"
   xmlns:svg="http://www.w3.org/2000/svg"
   xmlns="http://www.w3.org/2000/svg"
   xmlns:sodipodi="http://sodipodi.sourceforge.net/DTD/sodipodi-0.dtd"
   xmlns:inkscape="http://www.inkscape.org/namespaces/inkscape"
   width="110"
   height="100"
   viewBox="0 0 29.104168 26.458335"
   version="1.1"
   id="svg8"
   inkscape:version="1.0.2-2 (e86c870879, 2021-01-15)"
   sodipodi:docname="leftBlue1.svg">
  <defs
     id="defs2" />
  <sodipodi:namedview
     id="base"
     pagecolor="#ffffff"
     bordercolor="#666666"
     borderopacity="1.0"
     inkscape:pageopacity="0.0"
     inkscape:pageshadow="2"
     inkscape:zoom="1.4026546"
     inkscape:cx="275.06609"
     inkscape:cy="233.71092"
     inkscape:document-units="mm"
     inkscape:current-layer="layer34"
     inkscape:document-rotation="0"
     showgrid="false"
     fit-margin-top="0"
     fit-margin-left="0"
     fit-margin-right="0"
     fit-margin-bottom="0"
     showguides="true"
     inkscape:guide-bbox="true"
     inkscape:window-width="1920"
     inkscape:window-height="991"
     inkscape:window-x="831"
     inkscape:window-y="1341"
     inkscape:window-maximized="1"
     units="px"
     width="110mm"
     height="100mm">
    <sodipodi:guide
       position="76.910648,0.14790893"
       orientation="0,-1"
       id="guide2237" />
    <sodipodi:guide
       position="431.29678,0.14790893"
       orientation="0,-1"
       id="guide2245" />
    <sodipodi:guide
       position="-25.136929,0.14790893"
       orientation="1,0"
       id="guide2249" />
    <sodipodi:guide
       position="58.621329,-0.15395647"
       orientation="0,-1"
       id="guide2807" />
    <sodipodi:guide
       position="2.7940884,151.96216"
       orientation="0,-1"
       id="guide2809" />
  </sodipodi:namedview>
  <metadata
     id="metadata5">
    <rdf:RDF>
      <cc:Work
         rdf:about="">
        <dc:format>image/svg+xml</dc:format>
        <dc:type
           rdf:resource="http://purl.org/dc/dcmitype/StillImage" />
        <dc:title></dc:title>
      </cc:Work>
    </rdf:RDF>
  </metadata>
  <g
     inkscape:groupmode="layer"
     id="layer34"
     inkscape:label="fish"
     transform="translate(0.38249999,9.3352753)"
     style="display:inline">
    <g
       inkscape:groupmode="layer"
       id="layer36"
       inkscape:label="color ">
      <path
         style="fill:#a8abea;fill-opacity:1;stroke:none;stroke-width:0.366116;stroke-linecap:butt;stroke-linejoin:miter;stroke-miterlimit:4;stroke-dasharray:none;stroke-opacity:1"
         d="m 10.334634,1.7795803 c -0.02527,-0.404381 -1.1878738,-0.87194995 -0.328561,-1.20050995 0.859313,-0.328562 0.83404,-0.16428 1.048868,-0.657121 0.214828,-0.492842 -0.189555,-0.859315 1.099415,-0.93513605 1.288969,-0.07582 0.619211,0.12636905 0.758217,-0.202191 0.139007,-0.328562 0.556026,-1.124691 2.287289,-1.074143 1.731262,0.05055 1.478523,-1.086778 3.310882,-0.442293 1.832358,0.644486 0.139006,-1.225786 1.415338,-0.379109 1.276333,0.846677 2.502117,0.871951 2.818041,4.625127"
         id="path3038-3" />
      <path
         style="fill:#4d53d5;fill-opacity:1;stroke:none;stroke-width:0.366116;stroke-linecap:butt;stroke-linejoin:miter;stroke-miterlimit:4;stroke-dasharray:none;stroke-opacity:1"
         d="M 15.602467,9.0082423 C 11.84776,8.8409063 8.6933772,7.8645133 7.1880312,5.1915563 c -0.366472,-1.175236 -0.07582,-1.516434 -0.07582,-1.516434 0,0 3.9932778,-2.70430695 6.9250508,-2.91913595 2.931773,-0.214828 6.659675,-0.518114 9.578811,1.21314695 2.919136,1.731264 3.588896,2.337838 3.854272,2.540029 0.265376,0.20219 -1.478525,0.113732 -1.162601,0.593936 0.315924,0.480205 0.695032,0 0.227465,0.657121 -0.467566,0.657122 -2.093397,2.875467 -7.304159,3.197151 -0.6759,0.04172 -1.344029,0.06839 -1.999426,0.0758"
         id="path3025-1"
         sodipodi:nodetypes="cccssssssc" />
      <path
         style="fill:#a8abea;fill-opacity:1;stroke:none;stroke-width:0.264583px;stroke-linecap:butt;stroke-linejoin:miter;stroke-opacity:1"
         d="m 21.092551,0.99267735 c 0,0 -1.406226,2.31493695 -1.07527,4.24550295 0.330955,1.930567 0.844797,3.249113 1.718636,3.403436 0.873839,0.154324 3.025042,-1.417709 3.466314,-1.500449 0.441275,-0.08274 1.544455,-1.572033 1.544455,-1.572033 l -0.441272,-0.689488 1.15834,-0.386114 -0.717068,-0.606748 -3.171645,-2.096046 z"
         id="path7137" />
      <path
         style="fill:#a8abea;fill-opacity:1;stroke:none;stroke-width:0.366116;stroke-linecap:butt;stroke-linejoin:miter;stroke-miterlimit:4;stroke-dasharray:none;stroke-opacity:1"
         d="m 7.1122072,3.6751233 c -0.08846,-0.126369 -4.347113,-3.09605295 -4.321839,-1.794447 0.02527,1.301606 0.783491,1.339516 0.139007,1.529071 -0.644485,0.189555 -1.28897,-0.01264 -0.973046,0.669759 0.315924,0.682396 0.745581,0.45493 0.770854,0.960409 0.02527,0.505477 -0.151643,1.149963 0.214829,1.427975 0.366471,0.278013 0.543389,-0.01264 0.429656,0.41702 -0.113733,0.429656 -0.139006,0.657122 0.214828,0.87195 0.353835,0.214828 0.720307,0.379108 1.074142,0.505477 0.353834,0.12637 0.45493,-0.08846 0.682395,-0.556025 0.227466,-0.467567 0.06319,-0.467567 0.391746,-0.758218 0.328561,-0.290649 0.695033,-0.821401 0.935134,-1.288968 0.240103,-0.467569 0.575338,-0.391067 0.480205,-0.540231 -0.140364,-0.220082 -0.157962,-1.298447 -0.03791,-1.443772 z"
         id="path3023-5"
         sodipodi:nodetypes="csssssssssssscc" />
      <path
         style="display:inline;fill:#a8abea;fill-opacity:1;stroke:none;stroke-width:0.366116;stroke-linecap:butt;stroke-linejoin:miter;stroke-miterlimit:4;stroke-dasharray:none;stroke-opacity:1"
         d="m 9.0115162,7.3548793 c 0.03574,0.285941 -0.571884,1.787135 0.14297,1.679907 0.714855,-0.107228 2.7521888,-0.607626 2.5377328,-0.607626 -0.214457,0 -1.644165,-0.607626 -1.644165,-0.607626 L 9.0383222,7.1851013 Z"
         id="path6681-1" />
      <path
         style="fill:#a8abea;fill-opacity:1;stroke:none;stroke-width:0.264583px;stroke-linecap:butt;stroke-linejoin:miter;stroke-opacity:1"
         d="m 15.439077,5.8449313 c 0.220636,-0.275797 0.386114,-0.772229 0.60675,-0.468853 0.220637,0.303374 1.020443,2.620055 1.020443,2.620055 l 0.165354,1.037037 1.037251,0.0731 0.214114,1.0352857 -0.409535,0.409535 -0.555175,0.02064 -0.33215,0.398656 -0.975085,0.351031 -1.140846,-0.331529 0.165764,-0.672808 0.366506,-1.3088277 0.01378,-1.860195 -0.206785,-0.650995 c 0,0 -0.108546,-0.424362 0.02962,-0.652123 z"
         id="path7200" />
      <path
         style="fill:#767ade;fill-opacity:1;stroke:none;stroke-width:0.264583px;stroke-linecap:butt;stroke-linejoin:miter;stroke-opacity:1"
         d="m 10.334635,1.7795793 c 0,0 0.05739,-1.09202195 3.063557,-1.64361295 3.00617,-0.55159 4.467884,-0.137897 4.991897,-0.220636 0.52401,-0.08274 1.406554,-0.248216 2.096042,-0.220636 0.689488,0.02758 1.792671,-0.661909 1.792671,-0.661909 l 0.46532,2.48141895 -2.726841,-0.79906695 h -4.24725 l -2.537317,0.137897 z"
         id="path7220" />
      <path
         style="fill:#767ade;fill-opacity:1;stroke:#000000;stroke-width:0.264583px;stroke-linecap:butt;stroke-linejoin:miter;stroke-opacity:1"
         d="m 17.231624,9.0331703 0.286655,1.5385517 0.555175,-0.02064 0.409535,-0.409535 -0.214114,-1.0352857 z"
         id="path7222" />
    </g>
    <g
       inkscape:groupmode="layer"
       id="layer35"
       inkscape:label="ol 1"
       style="display:inline">
      <g
         id="g6706"
         transform="matrix(0.64799332,0,0,0.64799332,-2.1759508,-2.1884237)"
         style="stroke-width:0.771613;stroke-miterlimit:4;stroke-dasharray:none">
        <path
           style="display:inline;fill:none;stroke:#000000;stroke-width:0.771613;stroke-linecap:butt;stroke-linejoin:miter;stroke-miterlimit:4;stroke-dasharray:none;stroke-opacity:1"
           d="m 35.908551,4.9091566 c 0,0 -1.985727,3.3647031 -1.709931,6.9500424 0.275794,3.585339 2.702793,4.853997 2.702793,4.853997"
           id="path6673" />
        <path
           style="display:inline;fill:none;stroke:#000000;stroke-width:0.771613;stroke-linecap:round;stroke-linejoin:miter;stroke-miterlimit:4;stroke-dasharray:none;stroke-opacity:1"
           d="m 27.138259,13.403653 c 0,0 0.882544,3.309543 0.05516,5.184952 -0.827387,1.875408 -0.441275,2.096044 0.441272,2.261521 0.882544,0.165477 2.316681,-0.165477 2.482156,-0.661909 0.165479,-0.496431 -0.386111,-5.405588 -1.434134,-7.06036"
           id="path6675" />
        <path
           style="display:inline;fill:none;stroke:#000000;stroke-width:0.771613;stroke-linecap:butt;stroke-linejoin:miter;stroke-miterlimit:4;stroke-dasharray:none;stroke-opacity:1"
           d="m 31.550985,17.430264 c 0.110318,0.717068 0.992862,2.592476 -1.15834,2.261522"
           id="path6677" />
        <path
           style="display:inline;fill:none;stroke:#000000;stroke-width:0.771613;stroke-linecap:butt;stroke-linejoin:miter;stroke-miterlimit:4;stroke-dasharray:none;stroke-opacity:1"
           d="m 17.264787,14.72747 c 0.05516,0.441272 -0.882545,2.757953 0.220636,2.592476 1.103182,-0.165477 4.247248,-0.937704 3.916294,-0.937704 -0.330955,0 -2.537317,-0.937704 -2.537317,-0.937704 l -1.558244,-0.979074 z"
           id="path6681" />
        <path
           style="display:inline;fill:none;stroke:#000000;stroke-width:0.771613;stroke-linecap:round;stroke-linejoin:miter;stroke-miterlimit:4;stroke-dasharray:none;stroke-opacity:1"
           d="M 9.4973151,9.0780292 C 11.884359,9.2801329 14.154046,9.6794474 14.138714,9.6923319"
           id="path6683"
           sodipodi:nodetypes="cc" />
        <path
           style="display:inline;fill:none;stroke:#000000;stroke-width:0.771613;stroke-linecap:round;stroke-linejoin:miter;stroke-miterlimit:4;stroke-dasharray:none;stroke-opacity:1"
           d="M 9.6151371,12.925452 C 10.141682,12.769439 14.197219,10.608911 14.197219,10.608911"
           id="path6685"
           sodipodi:nodetypes="cc" />
        <ellipse
           style="display:inline;fill:#000000;fill-opacity:1;stroke:none;stroke-width:0.771613;stroke-linecap:round;stroke-linejoin:round;stroke-miterlimit:4;stroke-dasharray:none;stroke-opacity:1;paint-order:markers fill stroke"
           id="path6687"
           cx="38.556187"
           cy="9.4184103"
           rx="0.6343292"
           ry="0.64811903" />
        <path
           style="fill:none;stroke:#000000;stroke-width:0.771613;stroke-linecap:butt;stroke-linejoin:miter;stroke-miterlimit:4;stroke-dasharray:none;stroke-opacity:1"
           d="m 14.333731,9.0487758 c -0.136512,-0.195016 -6.7085762,-4.777909 -6.6695729,-2.769238 0.039003,2.008672 1.2091037,2.067177 0.2145183,2.359703 -0.9945854,0.292526 -1.9891708,-0.0195 -1.5016289,1.033589 0.4875419,1.0530902 1.1505988,0.7020592 1.1896021,1.4821272 0.039003,0.780066 -0.23402,1.774653 0.3315285,2.203688 0.5655487,0.429038 0.838572,-0.0195 0.6630569,0.643557 -0.1755151,0.663056 -0.2145183,1.014087 0.3315285,1.345615 0.5460468,0.331528 1.1115955,0.58505 1.6576425,0.780066 0.546047,0.195016 0.70206,-0.136512 1.05309,-0.858073 0.351031,-0.721561 0.09751,-0.721561 0.604553,-1.170101 0.507043,-0.448538 1.072592,-1.267608 1.443123,-1.989169 0.370532,-0.721564 0.887876,-0.603505 0.741064,-0.833698 -0.216613,-0.339636 -0.243771,-2.0037969 -0.05851,-2.2280662 z"
           id="path3023"
           sodipodi:nodetypes="csssssssssssscc" />
        <path
           style="fill:none;stroke:#000000;stroke-width:0.771613;stroke-linecap:butt;stroke-linejoin:miter;stroke-miterlimit:4;stroke-dasharray:none;stroke-opacity:1"
           d="M 27.436116,17.278984 C 21.641756,17.020747 16.77383,15.513951 14.450741,11.388976 13.885192,9.5753208 14.333731,9.0487758 14.333731,9.0487758 c 0,0 6.162529,-4.173357 10.686917,-4.504886 4.524388,-0.331528 10.277382,-0.799568 14.782269,1.87216 4.504886,2.671731 5.538476,3.6078112 5.948011,3.9198372 0.409535,0.312025 -2.281698,0.175514 -1.794155,0.916577 0.487542,0.741066 1.072591,0 0.35103,1.014087 -0.721561,1.014087 -3.230585,4.437494 -11.271967,4.933926 -1.043066,0.06439 -2.074141,0.105545 -3.085566,0.116975"
           id="path3025"
           sodipodi:nodetypes="cccssssssc" />
        <path
           style="fill:none;stroke:#000000;stroke-width:0.771613;stroke-linecap:butt;stroke-linejoin:miter;stroke-miterlimit:4;stroke-dasharray:none;stroke-opacity:1"
           d="m 19.306658,6.1235238 c -0.039,-0.624051 -1.833158,-1.345615 -0.507044,-1.852657 1.326114,-0.507045 1.287111,-0.253521 1.618639,-1.014087 0.331529,-0.760566 -0.292525,-1.326116 1.696646,-1.443125 1.989171,-0.117009 0.955582,0.195016 1.1701,-0.312026 0.214519,-0.50704504 0.858074,-1.73565104 3.529803,-1.65764404 2.671729,0.07801 2.281696,-1.67714296 5.109439,-0.682558 2.827742,0.994587 0.214518,-1.89166296 2.184187,-0.58504996 1.969669,1.30661296 3.861331,1.34561596 4.348873,7.137612"
           id="path3038" />
      </g>
      <path
         style="fill:none;stroke:#000000;stroke-width:0.265;stroke-linecap:round;stroke-linejoin:round;stroke-miterlimit:4;stroke-dasharray:none;stroke-opacity:1"
         d="m 21.092551,0.99267735 c 0,0 0.193386,-1.46346 -0.57884,-2.23568705"
         id="path7204" />
      <path
         style="fill:none;stroke:#000000;stroke-width:0.265;stroke-linecap:round;stroke-linejoin:round;stroke-miterlimit:4;stroke-dasharray:none;stroke-opacity:1"
         d="m 18.583145,0.57723935 c 0,0 0.08274,-0.854966 -0.496433,-1.73751005"
         id="path7206" />
      <path
         style="fill:none;stroke:#000000;stroke-width:0.265;stroke-linecap:round;stroke-linejoin:round;stroke-miterlimit:4;stroke-dasharray:none;stroke-opacity:1"
         d="m 16.321624,0.54965935 c 0,0 0.165476,-1.048022 -0.634331,-1.90298805"
         id="path7208" />
      <path
         style="fill:none;stroke:#000000;stroke-width:0.264583px;stroke-linecap:butt;stroke-linejoin:miter;stroke-opacity:1"
         d="m 13.977363,0.74271635 c 0,0 0.08274,-0.827386 -0.52401,-1.378976"
         id="path7210" />
      <path
         style="fill:none;stroke:#000000;stroke-width:0.265;stroke-linecap:round;stroke-linejoin:round;stroke-miterlimit:4;stroke-dasharray:none;stroke-opacity:1"
         d="m 17.03869,1.5701023 c -0.258809,-4.47e-4 -0.71095,0.35409 -0.642312,0.717655 0.145407,0.770197 0.697471,0.81301 0.697471,0.81301"
         id="path7214"
         sodipodi:nodetypes="csc" />
      <path
         style="fill:none;stroke:#000000;stroke-width:0.265;stroke-linecap:round;stroke-linejoin:round;stroke-miterlimit:4;stroke-dasharray:none;stroke-opacity:1"
         d="m 18.665882,4.9623843 c -0.106855,-0.0062 -0.897273,0.161157 -0.845467,0.890835 0.02648,0.373026 0.49104,0.624881 0.8041,0.570882"
         id="path7216"
         sodipodi:nodetypes="csc" />
      <path
         style="fill:none;stroke:#000000;stroke-width:0.265;stroke-linecap:round;stroke-linejoin:round;stroke-miterlimit:4;stroke-dasharray:none;stroke-opacity:1"
         d="m 12.40533,2.8663393 c 0,0 -0.57917,0 -0.551593,0.882547 0.02758,0.882544 0.799809,0.661908 0.799809,0.661908"
         id="path7218" />
      <path
         style="fill:none;stroke:#000000;stroke-width:0.265;stroke-linecap:round;stroke-linejoin:round;stroke-miterlimit:4;stroke-dasharray:none;stroke-opacity:1"
         d="m 13.573238,3.8865033 c -0.258809,-4.47e-4 -0.71095,0.35409 -0.642312,0.717656 0.145407,0.770197 0.697471,0.813009 0.697471,0.813009"
         id="path7214-9"
         sodipodi:nodetypes="csc" />
    </g>
  </g>
</svg>
