<?xml version="1.0" encoding="UTF-8" standalone="no"?>
<svg
   xmlns:dc="http://purl.org/dc/elements/1.1/"
   xmlns:cc="http://creativecommons.org/ns#"
   xmlns:rdf="http://www.w3.org/1999/02/22-rdf-syntax-ns#"
   xmlns:svg="http://www.w3.org/2000/svg"
   xmlns="http://www.w3.org/2000/svg"
   xmlns:sodipodi="http://sodipodi.sourceforge.net/DTD/sodipodi-0.dtd"
   xmlns:inkscape="http://www.inkscape.org/namespaces/inkscape"
   width="110"
   height="100"
   viewBox="0 0 29.104168 26.458335"
   version="1.1"
   id="svg8"
   inkscape:version="1.0.2-2 (e86c870879, 2021-01-15)"
   sodipodi:docname="leftPink1.svg">
  <defs
     id="defs2" />
  <sodipodi:namedview
     id="base"
     pagecolor="#ffffff"
     bordercolor="#666666"
     borderopacity="1.0"
     inkscape:pageopacity="0.0"
     inkscape:pageshadow="2"
     inkscape:zoom="1.4026546"
     inkscape:cx="265.08501"
     inkscape:cy="233.71092"
     inkscape:document-units="mm"
     inkscape:current-layer="layer34"
     inkscape:document-rotation="0"
     showgrid="false"
     fit-margin-top="0"
     fit-margin-left="0"
     fit-margin-right="0"
     fit-margin-bottom="0"
     showguides="true"
     inkscape:guide-bbox="true"
     inkscape:window-width="1920"
     inkscape:window-height="991"
     inkscape:window-x="831"
     inkscape:window-y="1341"
     inkscape:window-maximized="1"
     units="px"
     width="110mm">
    <sodipodi:guide
       position="76.910648,0.14790893"
       orientation="0,-1"
       id="guide2237" />
    <sodipodi:guide
       position="431.29678,0.14790893"
       orientation="0,-1"
       id="guide2245" />
    <sodipodi:guide
       position="-25.136929,0.14790893"
       orientation="1,0"
       id="guide2249" />
    <sodipodi:guide
       position="58.621329,-0.15395647"
       orientation="0,-1"
       id="guide2807" />
    <sodipodi:guide
       position="2.7940884,151.96216"
       orientation="0,-1"
       id="guide2809" />
  </sodipodi:namedview>
  <metadata
     id="metadata5">
    <rdf:RDF>
      <cc:Work
         rdf:about="">
        <dc:format>image/svg+xml</dc:format>
        <dc:type
           rdf:resource="http://purl.org/dc/dcmitype/StillImage" />
        <dc:title></dc:title>
      </cc:Work>
    </rdf:RDF>
  </metadata>
  <g
     inkscape:groupmode="layer"
     id="layer34"
     inkscape:label="fish"
     transform="translate(0.38249999,9.3352753)"
     style="display:inline">
    <g
       inkscape:groupmode="layer"
       id="layer36"
       inkscape:label="color ">
      <path
         style="display:inline;fill:#e997be;fill-opacity:1;stroke:none;stroke-width:0.248055;stroke-linecap:butt;stroke-linejoin:miter;stroke-miterlimit:4;stroke-dasharray:none;stroke-opacity:1"
         d="m 16.957948,2.7840919 c -0.0605,-0.169312 -0.79905,-1.2010712 -1.21023,-1.2615402 -0.41119,-0.06047 -0.37491,0.3990932 -0.9554,0.4232802 -0.5805,0.02418 -1.14891,-0.2781552 -1.22147,-0.01209 -0.0726,0.266062 0.35072,0.362813 -0.0484,0.520031 -0.39909,0.157217 -1.02797,0.108846 -0.78609,0.45956 0.0677,0.09822 0.46813,0.895863 0.7668,0.664767 0.71093,-0.550086 2.48625,-1.148247 2.48625,-1.148247"
         id="path6728-6"
         sodipodi:nodetypes="cssssssc"
         inkscape:transform-center-x="94.077366"
         inkscape:transform-center-y="35.903036" />
      <path
         style="display:inline;fill:#d84c8f;fill-opacity:1;stroke:none;stroke-width:0.249139;stroke-linecap:butt;stroke-linejoin:miter;stroke-miterlimit:4;stroke-dasharray:none;stroke-opacity:1"
         d="m 19.212418,4.7693799 c 0,0 -0.63951,-0.261625 -0.86451,-0.535709 -0.22501,-0.274082 -1.14873,-1.333042 -1.59874,-1.532375 -0.45002,-0.199335 -1.19611,-0.423583 -1.97771,0.0872 -0.78162,0.510791 -1.74086,1.258293 -1.88298,1.345501 -0.1421,0.0872 -0.20131,0.560626 0.0238,0.834707 0.22502,0.274085 1.13364,0.871492 2.06062,1.13371 0.92639,0.262051 1.62802,0.149021 1.99158,0.141577 0.32418,-0.0066 1.47113,-0.323489 1.75965,-0.550305 0.19536,-0.153597 0.55973,-0.499617 0.55946,-0.500731 0,0 -0.4737,0.161959 -0.39081,0 0.083,-0.161958 0.31976,-0.423584 0.31976,-0.423584 z"
         id="path3011-4-9"
         sodipodi:nodetypes="csssssssscsc"
         inkscape:transform-center-x="92.874638"
         inkscape:transform-center-y="37.709921" />
      <path
         style="fill:#e997be;fill-opacity:1;stroke:none;stroke-width:0.164795px;stroke-linecap:butt;stroke-linejoin:miter;stroke-opacity:1"
         d="m 12.841358,4.2130289 c 0,0 -0.11972,0.501716 -0.0664,0.613842 0.0533,0.112125 -2.48102,1.326812 -2.48102,1.326812 l -0.0711,-0.09344 0.56252,-0.840938 0.0178,-0.274084 -0.37303,-0.292771 -0.0238,-0.317687 0.49741,-0.330145 0.0652,-0.286543 c 0,0 -0.23686,-0.193104 -0.25462,-0.230479 -0.0178,-0.03738 -0.0473,-0.280312 -0.0473,-0.280312 0,0 0.30199,-0.105899 0.34344,-0.07475 0.0414,0.03114 1.83096,1.080493 1.83096,1.080493 z"
         id="path7630-4"
         inkscape:transform-center-x="97.365483"
         inkscape:transform-center-y="37.974783" />
      <path
         style="fill:#e997be;fill-opacity:1;stroke:none;stroke-width:0.164795px;stroke-linecap:butt;stroke-linejoin:miter;stroke-opacity:1"
         d="m 19.212418,4.7693799 c 0,0 -0.53155,-0.24043 -0.64997,-0.427305 -0.11844,-0.186875 -0.39323,-0.374829 -0.4998,-0.518101 -0.10659,-0.143271 -0.41345,-0.375178 -0.41345,-0.375178 0,0 -0.93069,0.88597 -0.98398,1.278409 -0.0533,0.392436 -0.14001,1.380019 -0.0109,1.437509 0.1292,0.05748 1.2957,-0.104467 1.2957,-0.104467 0,0 1.0707,-0.37855 1.20201,-0.622917 0.13133,-0.244366 -0.18946,-0.168187 -0.18946,-0.168187 l -0.0948,-0.174417 z"
         id="path7632-5"
         sodipodi:nodetypes="csscsccsccc"
         inkscape:transform-center-x="90.99793"
         inkscape:transform-center-y="38.147468" />
      <path
         style="fill:#e997be;fill-opacity:1;stroke:none;stroke-width:0.164795px;stroke-linecap:butt;stroke-linejoin:miter;stroke-opacity:1"
         d="m 15.155288,4.9763709 c -0.0533,-0.143271 -0.0533,-0.30523 -0.21908,-0.336376 -0.16581,-0.03114 -0.75793,0.311459 -0.75793,0.311459 l -0.21317,0.429813 0.57437,0.168188 c 0,0 0.50923,-0.130814 0.53291,-0.137043 0.0238,-0.0063 0.083,-0.436041 0.083,-0.436041 z"
         id="path7634-4"
         inkscape:transform-center-x="94.337363"
         inkscape:transform-center-y="38.428266" />
      <path
         style="fill:#db5e9b;fill-opacity:1;stroke:none;stroke-width:0.164795px;stroke-linecap:butt;stroke-linejoin:miter;stroke-opacity:1"
         d="m 16.777718,2.6528909 c -0.29606,-0.0063 -1.0599,-0.193105 -1.0599,-0.193105 l -0.97702,0.355063 -1.22466,0.845741 -0.44514,-0.359866 c 0,0 1.0007,-0.4485 1.35006,-0.703896 0.34934,-0.255396 0.88226,-0.436042 1.16056,-0.52948 0.2783,-0.09343 1.16246,0.419835 1.16246,0.419835 z"
         id="path7651-1"
         inkscape:transform-center-x="93.973253"
         inkscape:transform-center-y="36.192828" />
      <path
         style="display:inline;fill:none;stroke:#000000;stroke-width:0.249139;stroke-linecap:butt;stroke-linejoin:miter;stroke-miterlimit:4;stroke-dasharray:none;stroke-opacity:1"
         d="m 16.880268,2.7799509 c -0.0592,-0.174416 -0.78245,-1.2372822 -1.18509,-1.2995752 -0.40265,-0.06229 -0.36713,0.4111262 -0.93557,0.4360422 -0.56844,0.02491 -1.12504,-0.2865412 -1.1961,-0.01246 -0.0711,0.274083 0.34343,0.373751 -0.0473,0.535709 -0.3908,0.161958 -1.00663,0.112124 -0.76977,0.473416 0.23685,0.361293 0.76977,0.747502 0.76977,0.747502"
         id="path3013-5"
         sodipodi:nodetypes="csssssc"
         inkscape:transform-center-x="94.110607"
         inkscape:transform-center-y="35.902201" />
    </g>
    <g
       inkscape:groupmode="layer"
       id="layer35"
       inkscape:label="ol 1"
       style="display:inline">
      <g
         id="g6739"
         transform="matrix(-0.6201373,0,0,0.6201373,20.536828,-29.497836)"
         style="stroke-width:0.4;stroke-miterlimit:4;stroke-dasharray:none"
         inkscape:transform-center-x="94.12657"
         inkscape:transform-center-y="37.181283">
        <path
           style="display:inline;fill:none;stroke:#000000;stroke-width:0.298657;stroke-linecap:round;stroke-linejoin:round;stroke-miterlimit:4;stroke-dasharray:none;stroke-opacity:1"
           d="m 12.534897,54.621263 c 0,0 1.006653,-0.441272 1.875408,-0.372325"
           id="path6722" />
        <path
           style="display:inline;fill:none;stroke:#000000;stroke-width:0.298657;stroke-linecap:round;stroke-linejoin:round;stroke-miterlimit:4;stroke-dasharray:none;stroke-opacity:1"
           d="m 12.603846,54.966007 c 0.234426,0.09653 2.013306,0.813596 2.633845,0.868754"
           id="path6724" />
        <path
           style="fill:none;stroke:#000000;stroke-width:0.4;stroke-linecap:round;stroke-linejoin:round;stroke-miterlimit:4;stroke-dasharray:none;stroke-opacity:1"
           d="m 1.9306657,55.170236 c 0,0 1.0530905,-0.409535 1.4236223,-0.838573 0.3705317,-0.429035 1.8916623,-2.086679 2.6327258,-2.398705 0.7410638,-0.312028 1.9696692,-0.663056 3.2567798,0.136512 1.2871104,0.799568 2.8667464,1.96967 3.1007664,2.106181 0.23402,0.136512 0.331528,0.877576 -0.039,1.306611 C 11.935029,55.9113 10.438766,56.846453 8.9122691,57.256915 7.3867412,57.667117 6.231328,57.490185 5.6326419,57.478533 5.0987965,57.468143 3.2100505,56.97216 2.7349703,56.617112 2.4132547,56.37668 1.8132239,55.835036 1.8136597,55.833293 c 0,0 0.7800669,0.253522 0.6435552,0 C 2.3206992,55.579771 1.9306657,55.170236 1.9306657,55.170236 Z"
           id="path6726"
           sodipodi:nodetypes="csssssssscsc" />
        <path
           style="fill:none;stroke:#000000;stroke-width:0.4;stroke-linecap:butt;stroke-linejoin:miter;stroke-miterlimit:4;stroke-dasharray:none;stroke-opacity:1"
           d="m 5.7711095,52.056085 c 0.097508,-0.273024 1.2884966,-1.936782 1.9515535,-2.034291 0.6630569,-0.09751 0.6045517,0.643556 1.5406322,0.682558 0.9360798,0.039 1.8526588,-0.448537 1.9696688,-0.0195 0.11701,0.429037 -0.565548,0.585052 0.07801,0.838573 0.643555,0.253521 1.657642,0.175514 1.267609,0.741063 -0.390034,0.56555 -1.267609,1.170102 -1.267609,1.170102"
           id="path6728"
           sodipodi:nodetypes="csssssc" />
        <path
           style="fill:none;stroke:#000000;stroke-width:0.4;stroke-linecap:butt;stroke-linejoin:miter;stroke-miterlimit:4;stroke-dasharray:none;stroke-opacity:1"
           d="m 12.42216,54.299352 c 0.312027,-0.214519 3.452203,-2.132375 3.510708,-1.508321 0.05851,0.624054 -0.643556,0.526545 -0.253522,1.170102 0.390033,0.643553 0.760565,0.117009 0.643555,0.897077 -0.11701,0.780066 -0.858073,0.312026 -0.35103,1.170099 0.507044,0.858075 1.267609,1.540632 0.448538,1.189604 -0.81907,-0.351031 -4.114853,-1.96967 -4.114853,-1.96967"
           id="path6730"
           sodipodi:nodetypes="csssssc" />
        <path
           style="fill:none;stroke:#000000;stroke-width:0.399911;stroke-linecap:round;stroke-linejoin:round;stroke-miterlimit:4;stroke-dasharray:none;stroke-opacity:1"
           d="m 8.6977465,55.755285 c 0,0 -0.1170099,0.585052 0.6240536,0.624054 0.7410639,0.039 1.4236229,-0.07801 1.1896019,-0.507042 -0.23402,-0.429037 -0.8970767,-0.81907 -1.0140868,-0.81907"
           id="path6733" />
        <path
           style="fill:none;stroke:#000000;stroke-width:0.4;stroke-linecap:butt;stroke-linejoin:miter;stroke-miterlimit:4;stroke-dasharray:none;stroke-opacity:1"
           d="m 4.5048868,53.10306 c 0.034498,-0.08624 1.3476214,1.234282 1.5930192,2.090836 0.3028384,1.057048 0.045121,2.160528 0.045121,2.160528"
           id="path6735"
           sodipodi:nodetypes="csc" />
        <ellipse
           style="fill:#000000;fill-opacity:1;stroke:none;stroke-width:0.4;stroke-linecap:round;stroke-linejoin:round;stroke-miterlimit:4;stroke-dasharray:none;stroke-opacity:1;paint-order:markers fill stroke"
           id="ellipse6737"
           cx="3.9695125"
           cy="55.576313"
           rx="0.32269928"
           ry="0.30856815" />
      </g>
      <path
         style="fill:none;stroke:#000000;stroke-width:0.185208;stroke-linecap:round;stroke-linejoin:round;stroke-miterlimit:4;stroke-dasharray:none;stroke-opacity:1"
         d="m 15.989408,2.4298529 c 0,0 -0.0806,-0.260493 -0.20733,-0.397005"
         id="path7837"
         inkscape:transform-center-x="93.011868"
         inkscape:transform-center-y="35.565892" />
      <path
         style="fill:none;stroke:#000000;stroke-width:0.185208;stroke-linecap:round;stroke-linejoin:round;stroke-miterlimit:4;stroke-dasharray:none;stroke-opacity:1"
         d="m 15.070258,2.6178979 c 0,0 -0.41928,-0.370532 -0.72156,-0.438788"
         id="path7839"
         inkscape:transform-center-x="94.188133"
         inkscape:transform-center-y="35.733046" />
      <path
         style="fill:none;stroke:#000000;stroke-width:0.185208;stroke-linecap:round;stroke-linejoin:round;stroke-miterlimit:4;stroke-dasharray:none;stroke-opacity:1"
         d="m 14.075678,3.2322009 c 0,0 -0.31203,-0.331529 -0.5558,-0.331529"
         id="path7841"
         inkscape:transform-center-x="95.099833"
         inkscape:transform-center-y="36.400978" />
      <path
         style="display:inline;fill:none;stroke:#000000;stroke-width:0.13439;stroke-linecap:round;stroke-linejoin:round;stroke-miterlimit:4;stroke-dasharray:none;stroke-opacity:1"
         d="m 16.124588,3.2908209 c -0.0556,-0.003 -0.46704,0.07963 -0.44007,0.440162 0.0138,0.184313 0.25558,0.308754 0.41853,0.282073"
         id="path7216-1-7"
         sodipodi:nodetypes="csc"
         inkscape:transform-center-x="92.993692"
         inkscape:transform-center-y="36.988241" />
      <path
         style="display:inline;fill:none;stroke:#000000;stroke-width:0.120732;stroke-linecap:round;stroke-linejoin:round;stroke-miterlimit:4;stroke-dasharray:none;stroke-opacity:1"
         d="m 14.600538,3.4299499 c -0.05,-0.0027 -0.41957,0.07154 -0.39535,0.395427 0.0124,0.165581 0.22961,0.277375 0.37601,0.253406"
         id="path7216-1-4"
         sodipodi:nodetypes="csc"
         inkscape:transform-center-x="94.495318"
         inkscape:transform-center-y="37.09049" />
    </g>
  </g>
</svg>
