<?xml version="1.0" encoding="UTF-8" standalone="no"?>
<svg
   xmlns:dc="http://purl.org/dc/elements/1.1/"
   xmlns:cc="http://creativecommons.org/ns#"
   xmlns:rdf="http://www.w3.org/1999/02/22-rdf-syntax-ns#"
   xmlns:svg="http://www.w3.org/2000/svg"
   xmlns="http://www.w3.org/2000/svg"
   xmlns:sodipodi="http://sodipodi.sourceforge.net/DTD/sodipodi-0.dtd"
   xmlns:inkscape="http://www.inkscape.org/namespaces/inkscape"
   width="110"
   height="100"
   viewBox="0 0 29.104168 26.458335"
   version="1.1"
   id="svg8"
   inkscape:version="1.0.2-2 (e86c870879, 2021-01-15)"
   sodipodi:docname="leftPink2.svg">
  <defs
     id="defs2" />
  <sodipodi:namedview
     id="base"
     pagecolor="#ffffff"
     bordercolor="#666666"
     borderopacity="1.0"
     inkscape:pageopacity="0.0"
     inkscape:pageshadow="2"
     inkscape:zoom="1.4026546"
     inkscape:cx="265.08501"
     inkscape:cy="233.71092"
     inkscape:document-units="mm"
     inkscape:current-layer="layer34"
     inkscape:document-rotation="0"
     showgrid="false"
     fit-margin-top="0"
     fit-margin-left="0"
     fit-margin-right="0"
     fit-margin-bottom="0"
     showguides="true"
     inkscape:guide-bbox="true"
     inkscape:window-width="1920"
     inkscape:window-height="991"
     inkscape:window-x="831"
     inkscape:window-y="1341"
     inkscape:window-maximized="1"
     units="px"
     width="110mm"
     height="100mm">
    <sodipodi:guide
       position="76.910648,0.14790893"
       orientation="0,-1"
       id="guide2237" />
    <sodipodi:guide
       position="431.29678,0.14790893"
       orientation="0,-1"
       id="guide2245" />
    <sodipodi:guide
       position="-25.136929,0.14790893"
       orientation="1,0"
       id="guide2249" />
    <sodipodi:guide
       position="58.621329,-0.15395647"
       orientation="0,-1"
       id="guide2807" />
    <sodipodi:guide
       position="2.7940884,151.96216"
       orientation="0,-1"
       id="guide2809" />
  </sodipodi:namedview>
  <metadata
     id="metadata5">
    <rdf:RDF>
      <cc:Work
         rdf:about="">
        <dc:format>image/svg+xml</dc:format>
        <dc:type
           rdf:resource="http://purl.org/dc/dcmitype/StillImage" />
        <dc:title></dc:title>
      </cc:Work>
    </rdf:RDF>
  </metadata>
  <g
     inkscape:groupmode="layer"
     id="layer34"
     inkscape:label="fish"
     transform="translate(0.38249999,9.3352753)"
     style="display:inline">
    <g
       inkscape:groupmode="layer"
       id="layer36"
       inkscape:label="color ">
      <path
         style="display:inline;fill:#e997be;fill-opacity:1;stroke:none;stroke-width:0.189138;stroke-linecap:butt;stroke-linejoin:miter;stroke-miterlimit:4;stroke-dasharray:none;stroke-opacity:1"
         d="m 16.276425,2.9065035 c -0.0461,-0.1291 -0.60927,-0.915802 -0.92279,-0.961908 -0.31352,-0.04611 -0.28586,0.304298 -0.72848,0.322748 -0.442623,0.0185 -0.876023,-0.21209 -0.931353,-0.009 -0.0554,0.20287 0.26742,0.27664 -0.0369,0.39652 -0.3043,0.11987 -0.78381,0.083 -0.59938,0.3504 0.0516,0.0749 0.35694,0.68308 0.58467,0.50688 0.54208,-0.41943 1.895733,-0.87552 1.895733,-0.87552"
         id="path3093"
         sodipodi:nodetypes="cssssssc" />
      <path
         style="display:inline;fill:#d84c8f;fill-opacity:1;stroke:none;stroke-width:0.189965;stroke-linecap:butt;stroke-linejoin:miter;stroke-miterlimit:4;stroke-dasharray:none;stroke-opacity:1"
         d="m 17.995425,4.4202535 c 0,0 -0.48762,-0.19949 -0.65918,-0.40847 -0.17157,-0.20898 -0.87589,-1.01642 -1.21902,-1.16842 -0.34313,-0.15198 -0.91201,-0.32297 -1.50797,0.0665 -0.595983,0.38948 -1.327383,0.95944 -1.435753,1.02594 -0.10835,0.0665 -0.1535,0.42746 0.0181,0.63644 0.17157,0.20899 0.86439,0.6645 1.571203,0.86444 0.70635,0.19981 1.24134,0.11363 1.51855,0.10795 0.24718,-0.005 1.12171,-0.24665 1.34171,-0.4196 0.14896,-0.11711 0.42678,-0.38095 0.42658,-0.3818 0,0 -0.36119,0.12349 -0.29799,0 0.0633,-0.12348 0.24381,-0.32297 0.24381,-0.32297 z"
         id="path3095"
         sodipodi:nodetypes="csssssssscsc" />
      <path
         style="fill:#e997be;fill-opacity:1;stroke:none;stroke-width:0.125654px;stroke-linecap:butt;stroke-linejoin:miter;stroke-opacity:1"
         d="m 13.137572,3.9960435 c 0,0 -0.0913,0.38255 -0.0506,0.46805 0.0406,0.0855 -1.89174,1.01167 -1.89174,1.01167 l -0.05421,-0.0712 0.42891,-0.64121 0.0136,-0.20898 -0.284426,-0.22323 -0.01815,-0.24224 0.379266,-0.25172 0.0497,-0.2185 c 0,0 -0.1806,-0.14723 -0.19414,-0.17573 -0.0136,-0.0285 -0.03607,-0.21374 -0.03607,-0.21374 0,0 0.230262,-0.0807 0.261872,-0.057 0.0316,0.0237 1.39608,0.82387 1.39608,0.82387 z"
         id="path3098" />
      <path
         style="fill:#e997be;fill-opacity:1;stroke:none;stroke-width:0.125654px;stroke-linecap:butt;stroke-linejoin:miter;stroke-opacity:1"
         d="m 17.995425,4.4202535 c 0,0 -0.4053,-0.18332 -0.49559,-0.32581 -0.0903,-0.14249 -0.29984,-0.28581 -0.3811,-0.39505 -0.0813,-0.10924 -0.31525,-0.28607 -0.31525,-0.28607 0,0 -0.70963,0.67554 -0.75027,0.97477 -0.0406,0.29923 -0.10675,1.05225 -0.008,1.09608 0.0985,0.0439 0.98796,-0.0797 0.98796,-0.0797 0,0 0.81639,-0.28864 0.91651,-0.47496 0.10014,-0.18633 -0.14446,-0.12825 -0.14446,-0.12825 l -0.0723,-0.13299 z"
         id="path3100"
         sodipodi:nodetypes="csscsccsccc" />
      <path
         style="fill:#e997be;fill-opacity:1;stroke:none;stroke-width:0.125654px;stroke-linecap:butt;stroke-linejoin:miter;stroke-opacity:1"
         d="m 14.901915,4.5780835 c -0.0406,-0.10924 -0.0406,-0.23273 -0.16704,-0.25648 -0.12643,-0.0237 -0.577913,0.23748 -0.577913,0.23748 l -0.16254,0.32773 0.43795,0.12824 c 0,0 0.388283,-0.0997 0.406333,-0.1045 0.0182,-0.005 0.0633,-0.33247 0.0633,-0.33247 z"
         id="path3102" />
      <path
         style="fill:#db5e9b;fill-opacity:1;stroke:none;stroke-width:0.125654px;stroke-linecap:butt;stroke-linejoin:miter;stroke-opacity:1"
         d="m 16.138995,2.8064635 c -0.22574,-0.005 -0.80816,-0.14724 -0.80816,-0.14724 l -0.74496,0.27073 -0.933793,0.64487 -0.33941,-0.2744 c 0,0 0.76302,-0.34197 1.0294,-0.53671 0.266373,-0.19473 0.672713,-0.33248 0.884913,-0.40372 0.2122,-0.0712 0.88636,0.32012 0.88636,0.32012 z"
         id="path3104" />
      <path
         style="display:inline;fill:none;stroke:#000000;stroke-width:0.189965;stroke-linecap:butt;stroke-linejoin:miter;stroke-miterlimit:4;stroke-dasharray:none;stroke-opacity:1"
         d="m 16.217195,2.9033435 c -0.0451,-0.13299 -0.59661,-0.94341 -0.90362,-0.990907 -0.30701,-0.04749 -0.27993,0.313477 -0.71336,0.332477 -0.433433,0.019 -0.857823,-0.218482 -0.912013,-0.01 -0.0542,0.20898 0.26186,0.28498 -0.0361,0.40847 -0.29798,0.12349 -0.76754,0.0855 -0.58694,0.36097 0.1806,0.27548 0.58694,0.56996 0.58694,0.56996"
         id="path3106"
         sodipodi:nodetypes="csssssc" />
    </g>
    <g
       inkscape:groupmode="layer"
       id="layer35"
       inkscape:label="ol 1"
       style="display:inline">
      <g
         id="g3124"
         transform="matrix(-0.47284605,0,0,0.47284605,19.005265,-21.708017)"
         style="stroke-width:0.465268;stroke-miterlimit:4;stroke-dasharray:none">
        <path
           style="display:inline;fill:none;stroke:#000000;stroke-width:0.465268;stroke-linecap:round;stroke-linejoin:round;stroke-miterlimit:4;stroke-dasharray:none;stroke-opacity:1"
           d="m 12.534897,54.621263 c 0,0 1.006653,-0.441272 1.875408,-0.372325"
           id="path3108" />
        <path
           style="display:inline;fill:none;stroke:#000000;stroke-width:0.465268;stroke-linecap:round;stroke-linejoin:round;stroke-miterlimit:4;stroke-dasharray:none;stroke-opacity:1"
           d="m 12.603846,54.966007 c 0.234426,0.09653 2.013306,0.813596 2.633845,0.868754"
           id="path3110" />
        <path
           style="fill:none;stroke:#000000;stroke-width:0.465268;stroke-linecap:round;stroke-linejoin:round;stroke-miterlimit:4;stroke-dasharray:none;stroke-opacity:1"
           d="m 1.9306657,55.170236 c 0,0 1.0530905,-0.409535 1.4236223,-0.838573 0.3705317,-0.429035 1.8916623,-2.086679 2.6327258,-2.398705 0.7410638,-0.312028 1.9696692,-0.663056 3.2567798,0.136512 1.2871104,0.799568 2.8667464,1.96967 3.1007664,2.106181 0.23402,0.136512 0.331528,0.877576 -0.039,1.306611 C 11.935029,55.9113 10.438766,56.846453 8.9122691,57.256915 7.3867412,57.667117 6.231328,57.490185 5.6326419,57.478533 5.0987965,57.468143 3.2100505,56.97216 2.7349703,56.617112 2.4132547,56.37668 1.8132239,55.835036 1.8136597,55.833293 c 0,0 0.7800669,0.253522 0.6435552,0 C 2.3206992,55.579771 1.9306657,55.170236 1.9306657,55.170236 Z"
           id="path3112"
           sodipodi:nodetypes="csssssssscsc" />
        <path
           style="fill:none;stroke:#000000;stroke-width:0.465268;stroke-linecap:butt;stroke-linejoin:miter;stroke-miterlimit:4;stroke-dasharray:none;stroke-opacity:1"
           d="m 5.7711095,52.056085 c 0.097508,-0.273024 1.2884966,-1.936782 1.9515535,-2.034291 0.6630569,-0.09751 0.6045517,0.643556 1.5406322,0.682558 0.9360798,0.039 1.8526588,-0.448537 1.9696688,-0.0195 0.11701,0.429037 -0.565548,0.585052 0.07801,0.838573 0.643555,0.253521 1.657642,0.175514 1.267609,0.741063 -0.390034,0.56555 -1.267609,1.170102 -1.267609,1.170102"
           id="path3114"
           sodipodi:nodetypes="csssssc" />
        <path
           style="fill:none;stroke:#000000;stroke-width:0.465268;stroke-linecap:butt;stroke-linejoin:miter;stroke-miterlimit:4;stroke-dasharray:none;stroke-opacity:1"
           d="m 12.42216,54.299352 c 0.312027,-0.214519 3.452203,-2.132375 3.510708,-1.508321 0.05851,0.624054 -0.643556,0.526545 -0.253522,1.170102 0.390033,0.643553 0.760565,0.117009 0.643555,0.897077 -0.11701,0.780066 -0.858073,0.312026 -0.35103,1.170099 0.507044,0.858075 1.267609,1.540632 0.448538,1.189604 -0.81907,-0.351031 -4.114853,-1.96967 -4.114853,-1.96967"
           id="path3116"
           sodipodi:nodetypes="csssssc" />
        <path
           style="fill:none;stroke:#000000;stroke-width:0.465268;stroke-linecap:round;stroke-linejoin:round;stroke-miterlimit:4;stroke-dasharray:none;stroke-opacity:1"
           d="m 8.6977465,55.755285 c 0,0 -0.1170099,0.585052 0.6240536,0.624054 0.7410639,0.039 1.4236229,-0.07801 1.1896019,-0.507042 -0.23402,-0.429037 -0.8970767,-0.81907 -1.0140868,-0.81907"
           id="path3118" />
        <path
           style="fill:none;stroke:#000000;stroke-width:0.465268;stroke-linecap:butt;stroke-linejoin:miter;stroke-miterlimit:4;stroke-dasharray:none;stroke-opacity:1"
           d="m 4.5048868,53.10306 c 0.034498,-0.08624 1.3476214,1.234282 1.5930192,2.090836 0.3028384,1.057048 0.045121,2.160528 0.045121,2.160528"
           id="path3120"
           sodipodi:nodetypes="csc" />
        <ellipse
           style="fill:#000000;fill-opacity:1;stroke:none;stroke-width:0.465268;stroke-linecap:round;stroke-linejoin:round;stroke-miterlimit:4;stroke-dasharray:none;stroke-opacity:1;paint-order:markers fill stroke"
           id="ellipse3122"
           cx="3.9695125"
           cy="55.576313"
           rx="0.32269928"
           ry="0.30856815" />
      </g>
      <path
         style="fill:none;stroke:#000000;stroke-width:0.141219;stroke-linecap:round;stroke-linejoin:round;stroke-miterlimit:4;stroke-dasharray:none;stroke-opacity:1"
         d="m 15.537925,2.6363935 c 0,0 -0.0615,-0.19862 -0.15809,-0.3027"
         id="path3126" />
      <path
         style="fill:none;stroke:#000000;stroke-width:0.141219;stroke-linecap:round;stroke-linejoin:round;stroke-miterlimit:4;stroke-dasharray:none;stroke-opacity:1"
         d="m 14.837085,2.7797835 c 0,0 -0.319703,-0.28253 -0.550183,-0.33457"
         id="path3128" />
      <path
         style="fill:none;stroke:#000000;stroke-width:0.141219;stroke-linecap:round;stroke-linejoin:round;stroke-miterlimit:4;stroke-dasharray:none;stroke-opacity:1"
         d="m 14.078732,3.2481835 c 0,0 -0.23792,-0.25279 -0.42379,-0.25279"
         id="path3130" />
      <path
         style="display:inline;fill:none;stroke:#000000;stroke-width:0.102471;stroke-linecap:round;stroke-linejoin:round;stroke-miterlimit:4;stroke-dasharray:none;stroke-opacity:1"
         d="m 15.640995,3.2928735 c -0.0424,-0.002 -0.35611,0.0607 -0.33555,0.33562 0.0105,0.14053 0.19488,0.23542 0.31913,0.21507"
         id="path3132"
         sodipodi:nodetypes="csc" />
      <path
         style="display:inline;fill:none;stroke:#000000;stroke-width:0.0920565;stroke-linecap:round;stroke-linejoin:round;stroke-miterlimit:4;stroke-dasharray:none;stroke-opacity:1"
         d="m 14.478922,3.3989635 c -0.0381,-0.002 -0.31991,0.0545 -0.30145,0.30151 0.009,0.12625 0.17508,0.21149 0.28671,0.19321"
         id="path3134"
         sodipodi:nodetypes="csc" />
    </g>
  </g>
</svg>
