<?xml version="1.0" encoding="UTF-8" standalone="no"?>
<svg
   xmlns:dc="http://purl.org/dc/elements/1.1/"
   xmlns:cc="http://creativecommons.org/ns#"
   xmlns:rdf="http://www.w3.org/1999/02/22-rdf-syntax-ns#"
   xmlns:svg="http://www.w3.org/2000/svg"
   xmlns="http://www.w3.org/2000/svg"
   xmlns:sodipodi="http://sodipodi.sourceforge.net/DTD/sodipodi-0.dtd"
   xmlns:inkscape="http://www.inkscape.org/namespaces/inkscape"
   width="110"
   height="100"
   viewBox="0 0 29.104168 26.458335"
   version="1.1"
   id="svg8"
   inkscape:version="1.0.2-2 (e86c870879, 2021-01-15)"
   sodipodi:docname="leftGreen2.svg">
  <defs
     id="defs2" />
  <sodipodi:namedview
     id="base"
     pagecolor="#ffffff"
     bordercolor="#666666"
     borderopacity="1.0"
     inkscape:pageopacity="0.0"
     inkscape:pageshadow="2"
     inkscape:zoom="1.4026546"
     inkscape:cx="275.06609"
     inkscape:cy="233.71092"
     inkscape:document-units="mm"
     inkscape:current-layer="layer34"
     inkscape:document-rotation="0"
     showgrid="false"
     fit-margin-top="0"
     fit-margin-left="0"
     fit-margin-right="0"
     fit-margin-bottom="0"
     showguides="true"
     inkscape:guide-bbox="true"
     inkscape:window-width="1920"
     inkscape:window-height="991"
     inkscape:window-x="831"
     inkscape:window-y="1341"
     inkscape:window-maximized="1"
     units="px"
     width="110mm"
     height="100mm">
    <sodipodi:guide
       position="76.910648,0.14790893"
       orientation="0,-1"
       id="guide2237" />
    <sodipodi:guide
       position="431.29678,0.14790893"
       orientation="0,-1"
       id="guide2245" />
    <sodipodi:guide
       position="-25.136929,0.14790893"
       orientation="1,0"
       id="guide2249" />
    <sodipodi:guide
       position="58.621329,-0.15395647"
       orientation="0,-1"
       id="guide2807" />
    <sodipodi:guide
       position="2.7940884,151.96216"
       orientation="0,-1"
       id="guide2809" />
  </sodipodi:namedview>
  <metadata
     id="metadata5">
    <rdf:RDF>
      <cc:Work
         rdf:about="">
        <dc:format>image/svg+xml</dc:format>
        <dc:type
           rdf:resource="http://purl.org/dc/dcmitype/StillImage" />
        <dc:title></dc:title>
      </cc:Work>
    </rdf:RDF>
  </metadata>
  <g
     inkscape:groupmode="layer"
     id="layer34"
     inkscape:label="fish"
     transform="translate(0.38249999,9.3352753)"
     style="display:inline">
    <g
       inkscape:groupmode="layer"
       id="layer36"
       inkscape:label="color ">
      <path
         style="display:inline;fill:#49de65;fill-opacity:1;stroke:none;stroke-width:0.4;stroke-linecap:butt;stroke-linejoin:miter;stroke-miterlimit:4;stroke-dasharray:none;stroke-opacity:1"
         d="m 22.007274,5.1004745 c 0,0 -1.05309,-0.409535 -1.42362,-0.838573 -0.37053,-0.429035 -1.89166,-2.086679 -2.632725,-2.398705 -0.74107,-0.312028 -1.96967,-0.663056 -3.25678,0.136512 -1.28711,0.799568 -2.86675,1.96967 -3.10077,2.106181 -0.23402,0.136512 -0.33153,0.877576 0.039,1.306611 0.37053,0.429038 1.86679,1.364191 3.39329,1.774653 1.52553,0.410202 2.68094,0.23327 3.279631,0.221618 0.533844,-0.01039 2.422594,-0.506373 2.897674,-0.861421 0.32172,-0.240432 0.92175,-0.782076 0.92131,-0.783819 0,0 -0.78007,0.253522 -0.64355,0 0.13651,-0.253522 0.52654,-0.663057 0.52654,-0.663057 z"
         id="path3011-4"
         sodipodi:nodetypes="csssssssscsc" />
      <path
         style="display:inline;fill:#b2eebd;fill-opacity:1;stroke:none;stroke-width:0.4;stroke-linecap:butt;stroke-linejoin:miter;stroke-miterlimit:4;stroke-dasharray:none;stroke-opacity:1"
         d="m 17.942559,1.5280345 c -0.0975,-0.273024 -1.06423,-1.47849292 -1.72728,-1.57600192 -0.66306,-0.09751 -0.60455,0.643556 -1.54064,0.68255796 -0.93607,0.039 -1.85265,-0.44853696 -1.96966,-0.0195 -0.11701,0.42903696 0.56554,0.58505196 -0.078,0.83857296 -0.64356,0.253521 -1.48775,0.0084 -1.35537,0.682558 0.12707,0.64706 0.70268,1.105047 1.33664,1.027882 1.09745,-0.133582 2.69489,-1.540225 3.10975,-1.710439"
         id="path3013-3"
         sodipodi:nodetypes="cssssssc" />
      <path
         style="fill:#b2eebd;fill-opacity:1;stroke:none;stroke-width:0.264583px;stroke-linecap:butt;stroke-linejoin:miter;stroke-opacity:1"
         d="m 11.515779,4.2295905 c 0,0 -0.19715,0.785362 -0.10939,0.960877 0.0878,0.175515 -4.0856003,2.076928 -4.0856003,2.076928 l -0.11701,-0.146262 0.92633,-1.316363 0.0293,-0.429037 -0.6143,-0.458289 -0.039,-0.497293 0.81908,-0.516794 0.10725,-0.448539 c 0,0 -0.39003,-0.302276 -0.41928,-0.360781 -0.0293,-0.05851 -0.078,-0.438787 -0.078,-0.438787 0,0 0.49729,-0.165765 0.56555,-0.11701 0.0683,0.04875 3.0151403,1.69135 3.0151403,1.69135 z"
         id="path7630" />
      <path
         style="fill:#b2eebd;fill-opacity:1;stroke:none;stroke-width:0.264583px;stroke-linecap:butt;stroke-linejoin:miter;stroke-opacity:1"
         d="m 22.007274,5.1004745 c 0,0 -1.08406,-0.30004 -1.27908,-0.592565 -0.19502,-0.292525 -0.43879,-0.663057 -0.6143,-0.887327 -0.17552,-0.224269 -0.68083,-0.587284 -0.68083,-0.587284 0,0 -1.532615,1.386853 -1.620375,2.001156 -0.0878,0.614302 -0.23056,2.160215 -0.0178,2.250208 0.21279,0.08999 2.133715,-0.163529 2.133715,-0.163529 0,0 1.76317,-0.592565 1.97941,-0.975084 0.21625,-0.382518 -0.31202,-0.263272 -0.31202,-0.263272 l -0.15602,-0.273024 z"
         id="path7632" />
      <path
         style="fill:#b2eebd;fill-opacity:1;stroke:none;stroke-width:0.264583px;stroke-linecap:butt;stroke-linejoin:miter;stroke-opacity:1"
         d="m 15.326229,5.4244875 c -0.0878,-0.224269 -0.0878,-0.477791 -0.36079,-0.526545 -0.27302,-0.04875 -1.2481,0.487542 -1.2481,0.487542 l -0.35103,0.672808 0.94583,0.263272 c 0,0 0.83857,-0.204767 0.87757,-0.214518 0.039,-0.0098 0.13652,-0.682559 0.13652,-0.682559 z"
         id="path7634" />
      <path
         style="fill:#6fe585;fill-opacity:1;stroke:none;stroke-width:0.264583px;stroke-linecap:butt;stroke-linejoin:miter;stroke-opacity:1"
         d="m 17.997959,1.7874255 c -0.48755,-0.0098 -1.7454,-0.302276 -1.7454,-0.302276 l -1.60889,0.555798 -2.0167,1.323881 -0.73304,-0.563316 c 0,0 1.64789,-0.70206 2.22319,-1.101844 0.5753,-0.399785 1.45288,-0.682559 1.91117,-0.82882196 0.45829,-0.146262 1.91427,0.65718796 1.91427,0.65718796 z"
         id="path7651" />
    </g>
    <g
       inkscape:groupmode="layer"
       id="layer35"
       inkscape:label="ol 1"
       style="display:inline">
      <g
         id="g6671"
         transform="matrix(-1,0,0,1,23.937944,-50.069762)"
         style="stroke-width:0.4;stroke-miterlimit:4;stroke-dasharray:none">
        <path
           style="display:inline;fill:none;stroke:#000000;stroke-width:0.3;stroke-linecap:round;stroke-linejoin:miter;stroke-miterlimit:4;stroke-dasharray:none;stroke-opacity:1"
           d="m 12.534897,54.621263 c 0,0 1.006653,-0.441272 1.875408,-0.372325"
           id="path6657" />
        <path
           style="display:inline;fill:none;stroke:#000000;stroke-width:0.3;stroke-linecap:round;stroke-linejoin:miter;stroke-miterlimit:4;stroke-dasharray:none;stroke-opacity:1"
           d="m 12.603846,54.966007 c 0.234426,0.09653 2.013306,0.813596 2.633845,0.868754"
           id="path6659" />
        <path
           style="fill:none;stroke:#000000;stroke-width:0.35;stroke-linecap:round;stroke-linejoin:round;stroke-miterlimit:4;stroke-dasharray:none;stroke-opacity:1"
           d="m 1.9306657,55.170236 c 0,0 1.0530905,-0.409535 1.4236223,-0.838573 0.3705317,-0.429035 1.8916623,-2.086679 2.6327258,-2.398705 0.7410638,-0.312028 1.9696692,-0.663056 3.2567798,0.136512 1.2871104,0.799568 2.8667464,1.96967 3.1007664,2.106181 0.23402,0.136512 0.331528,0.877576 -0.039,1.306611 C 11.935029,55.9113 10.438766,56.846453 8.9122691,57.256915 7.3867412,57.667117 6.231328,57.490185 5.6326419,57.478533 5.0987965,57.468143 3.2100505,56.97216 2.7349703,56.617112 2.4132547,56.37668 1.8132239,55.835036 1.8136597,55.833293 c 0,0 0.7800669,0.253522 0.6435552,0 C 2.3206992,55.579771 1.9306657,55.170236 1.9306657,55.170236 Z"
           id="path3011"
           sodipodi:nodetypes="csssssssscsc" />
        <path
           style="fill:none;stroke:#000000;stroke-width:0.4;stroke-linecap:butt;stroke-linejoin:miter;stroke-miterlimit:4;stroke-dasharray:none;stroke-opacity:1"
           d="m 5.7711095,52.056085 c 0.097508,-0.273024 1.2884966,-1.936782 1.9515535,-2.034291 0.6630569,-0.09751 0.6045517,0.643556 1.5406322,0.682558 0.9360798,0.039 1.8526588,-0.448537 1.9696688,-0.0195 0.11701,0.429037 -0.565548,0.585052 0.07801,0.838573 0.643555,0.253521 1.657642,0.175514 1.267609,0.741063 -0.390034,0.56555 -1.267609,1.170102 -1.267609,1.170102"
           id="path3013"
           sodipodi:nodetypes="csssssc" />
        <path
           style="fill:none;stroke:#000000;stroke-width:0.4;stroke-linecap:butt;stroke-linejoin:miter;stroke-miterlimit:4;stroke-dasharray:none;stroke-opacity:1"
           d="m 12.42216,54.299352 c 0.312027,-0.214519 3.452203,-2.132375 3.510708,-1.508321 0.05851,0.624054 -0.643556,0.526545 -0.253522,1.170102 0.390033,0.643553 0.760565,0.117009 0.643555,0.897077 -0.11701,0.780066 -0.858073,0.312026 -0.35103,1.170099 0.507044,0.858075 1.267609,1.540632 0.448538,1.189604 -0.81907,-0.351031 -4.114853,-1.96967 -4.114853,-1.96967"
           id="path3015"
           sodipodi:nodetypes="csssssc" />
        <path
           style="fill:none;stroke:#000000;stroke-width:0.3;stroke-linecap:round;stroke-linejoin:miter;stroke-miterlimit:4;stroke-dasharray:none;stroke-opacity:1"
           d="m 8.6977465,55.755285 c 0,0 -0.1170099,0.585052 0.6240536,0.624054 0.7410639,0.039 1.4236229,-0.07801 1.1896019,-0.507042 -0.23402,-0.429037 -0.8970767,-0.81907 -1.0140868,-0.81907"
           id="path3017" />
        <path
           style="fill:none;stroke:#000000;stroke-width:0.3;stroke-linecap:butt;stroke-linejoin:miter;stroke-miterlimit:4;stroke-dasharray:none;stroke-opacity:1"
           d="m 4.5048868,53.10306 c 0.034498,-0.08624 1.3476214,1.234282 1.5930192,2.090836 0.3028384,1.057048 0.015868,2.228784 0.015868,2.228784"
           id="path3019"
           sodipodi:nodetypes="csc" />
        <ellipse
           style="fill:#000000;fill-opacity:1;stroke:none;stroke-width:0.4;stroke-linecap:round;stroke-linejoin:round;stroke-miterlimit:4;stroke-dasharray:none;stroke-opacity:1;paint-order:markers fill stroke"
           id="path3021"
           cx="3.9695125"
           cy="55.576313"
           rx="0.32269928"
           ry="0.30856815" />
      </g>
      <path
         style="fill:none;stroke:#000000;stroke-width:0.265;stroke-linecap:round;stroke-linejoin:miter;stroke-miterlimit:4;stroke-dasharray:none;stroke-opacity:1"
         d="m 16.546219,1.4259555 c 0,0 -0.27579,-0.66190896 -0.49643,-0.77222696"
         id="path7645" />
      <path
         style="fill:none;stroke:#000000;stroke-width:0.265;stroke-linecap:round;stroke-linejoin:miter;stroke-miterlimit:4;stroke-dasharray:none;stroke-opacity:1"
         d="m 14.822499,1.7569095 c 0,0 -0.1241,-0.441272 -0.56538,-0.57917"
         id="path7647" />
      <path
         style="fill:none;stroke:#000000;stroke-width:0.265;stroke-linecap:round;stroke-linejoin:miter;stroke-miterlimit:4;stroke-dasharray:none;stroke-opacity:1"
         d="m 13.650379,2.6118755 c 0,0 -0.68949,-0.08274 -0.96529,-0.330955"
         id="path7649" />
      <path
         style="display:inline;fill:none;stroke:#000000;stroke-width:0.182077;stroke-linecap:round;stroke-linejoin:round;stroke-miterlimit:4;stroke-dasharray:none;stroke-opacity:1"
         d="m 17.555529,2.6676905 c -0.17515,-0.07099 -0.56711,0.01799 -0.60857,0.254705 -0.0879,0.501466 0.27562,0.677997 0.27562,0.677997"
         id="path7214-3-3"
         sodipodi:nodetypes="csc" />
      <path
         style="display:inline;fill:none;stroke:#000000;stroke-width:0.182077;stroke-linecap:round;stroke-linejoin:round;stroke-miterlimit:4;stroke-dasharray:none;stroke-opacity:1"
         d="m 16.395589,3.3572725 c -0.18824,-0.0168 -0.53719,0.182654 -0.50779,0.421167 0.0622,0.505295 0.46143,0.568095 0.46143,0.568095"
         id="path7673"
         sodipodi:nodetypes="csc" />
      <path
         style="display:inline;fill:none;stroke:#000000;stroke-width:0.182077;stroke-linecap:round;stroke-linejoin:round;stroke-miterlimit:4;stroke-dasharray:none;stroke-opacity:1"
         d="m 13.626349,3.5327875 c -0.18824,-0.0168 -0.53719,0.182654 -0.50779,0.421167 0.0622,0.505295 0.46143,0.568095 0.46143,0.568095"
         id="path7684"
         sodipodi:nodetypes="csc" />
      <path
         style="display:inline;fill:none;stroke:#000000;stroke-width:0.182077;stroke-linecap:round;stroke-linejoin:round;stroke-miterlimit:4;stroke-dasharray:none;stroke-opacity:1"
         d="m 16.903509,5.6532075 c -0.18727,0.02544 -0.48318,0.297442 -0.40153,0.523462 0.17292,0.478845 0.57612,0.451374 0.57612,0.451374"
         id="path7695"
         sodipodi:nodetypes="csc" />
    </g>
  </g>
</svg>
