<?xml version="1.0" encoding="UTF-8" standalone="no"?>
<svg
   xmlns:dc="http://purl.org/dc/elements/1.1/"
   xmlns:cc="http://creativecommons.org/ns#"
   xmlns:rdf="http://www.w3.org/1999/02/22-rdf-syntax-ns#"
   xmlns:svg="http://www.w3.org/2000/svg"
   xmlns="http://www.w3.org/2000/svg"
   xmlns:sodipodi="http://sodipodi.sourceforge.net/DTD/sodipodi-0.dtd"
   xmlns:inkscape="http://www.inkscape.org/namespaces/inkscape"
   width="110"
   height="100"
   viewBox="0 0 29.104168 26.458336"
   version="1.1"
   id="svg8"
   inkscape:version="1.0.2-2 (e86c870879, 2021-01-15)"
   sodipodi:docname="leftGreen1.svg">
  <defs
     id="defs2" />
  <sodipodi:namedview
     id="base"
     pagecolor="#ffffff"
     bordercolor="#666666"
     borderopacity="1.0"
     inkscape:pageopacity="0.0"
     inkscape:pageshadow="2"
     inkscape:zoom="1.4026546"
     inkscape:cx="265.08501"
     inkscape:cy="233.71092"
     inkscape:document-units="px"
     inkscape:current-layer="layer34"
     inkscape:document-rotation="0"
     showgrid="false"
     fit-margin-top="0"
     fit-margin-left="0"
     fit-margin-right="0"
     fit-margin-bottom="0"
     showguides="true"
     inkscape:guide-bbox="true"
     inkscape:window-width="1920"
     inkscape:window-height="991"
     inkscape:window-x="831"
     inkscape:window-y="1341"
     inkscape:window-maximized="1"
     units="px"
     width="110mm"
     height="100mm">
    <sodipodi:guide
       position="76.910648,0.14790893"
       orientation="0,-1"
       id="guide2237" />
    <sodipodi:guide
       position="431.29678,0.14790893"
       orientation="0,-1"
       id="guide2245" />
    <sodipodi:guide
       position="-25.136929,0.14790893"
       orientation="1,0"
       id="guide2249" />
    <sodipodi:guide
       position="58.621329,-0.15395647"
       orientation="0,-1"
       id="guide2807" />
    <sodipodi:guide
       position="2.7940884,151.96216"
       orientation="0,-1"
       id="guide2809" />
  </sodipodi:namedview>
  <metadata
     id="metadata5">
    <rdf:RDF>
      <cc:Work
         rdf:about="">
        <dc:format>image/svg+xml</dc:format>
        <dc:type
           rdf:resource="http://purl.org/dc/dcmitype/StillImage" />
        <dc:title></dc:title>
      </cc:Work>
    </rdf:RDF>
  </metadata>
  <g
     inkscape:groupmode="layer"
     id="layer34"
     inkscape:label="fish"
     transform="translate(0.38249999,9.3352753)"
     style="display:inline">
    <g
       inkscape:groupmode="layer"
       id="layer36"
       inkscape:label="color ">
      <path
         style="display:inline;fill:#49de65;fill-opacity:1;stroke:none;stroke-width:0.4;stroke-linecap:butt;stroke-linejoin:miter;stroke-miterlimit:4;stroke-dasharray:none;stroke-opacity:1"
         d="m 17.207916,6.2534642 c 1.061006,0.02935 2.032393,0.0048 2.389017,-0.115811 0.737966,-0.249511 0.887112,-0.633162 0.750529,-0.750526 -0.273632,-0.124873 -0.417765,-0.5034 -0.429037,-0.54605 0,0 1.574807,0.18992 1.306613,-0.8190706 -0.257803,-0.969899 -1.336956,-2.259721 -2.710732,-2.515713 -1.305125,-0.243199 -4.167054,0.872451 -4.816914,1.365115 -0.649233,0.492188 -1.080607,0.947567 -1.111594,1.6576426 -0.02987,0.684411 0.175514,0.944731 1.345615,1.159251 0.441523,0.08095 1.245542,0.462487 2.1175,0.514286"
         id="path3001-1"
         sodipodi:nodetypes="csccsssssc" />
      <path
         style="display:inline;fill:#b2eebd;fill-opacity:1;stroke:none;stroke-width:0.4;stroke-linecap:butt;stroke-linejoin:miter;stroke-miterlimit:4;stroke-dasharray:none;stroke-opacity:1"
         d="M 17.895127,1.2820226 C 17.70011,0.81398263 17.07118,-0.34636637 16.427626,-0.28786237 c -0.643557,0.0585 0.156012,1.287111 -0.429038,1.131097 -0.585049,-0.156012 -1.735648,-0.58505 -1.833157,-0.05851 -0.09751,0.52654497 0.117009,0.74106297 -0.409536,0.74106297 -0.526544,0 -1.053089,-0.195016 -1.092094,0.292526 -0.039,0.487543 0.716687,1.165226 0.716687,1.165226"
         id="path3003-8"
         sodipodi:nodetypes="csssssc" />
      <path
         style="display:inline;fill:#b2eebd;fill-opacity:1;stroke:none;stroke-width:0.4;stroke-linecap:butt;stroke-linejoin:miter;stroke-miterlimit:4;stroke-dasharray:none;stroke-opacity:1"
         d="m 12.743602,3.9439996 c 0,0 -1.893456,-1.560131 -2.381,-1.30661 -0.4875376,0.253521 0.21452,0.780066 -0.15601,1.170099 -0.3705336,0.3900346 -1.0725916,0.7605656 -1.0140876,1.1505976 0.05851,0.390036 0.507042,0.312029 0.526544,0.916581 0.0195,0.604551 0.4775666,0.926288 0.9555826,0.624054 0.515871,-0.326168 0.790355,-0.590519 1.127751,-0.866726 0.568235,-0.465182 0.919925,-0.439887 0.919925,-0.439887"
         id="path3007-6"
         sodipodi:nodetypes="cssssssc" />
      <path
         style="fill:#b2eebd;fill-opacity:1;stroke:none;stroke-width:0.264583px;stroke-linecap:butt;stroke-linejoin:miter;stroke-opacity:1"
         d="m 15.930326,5.1531042 c 0,0 -0.211349,-0.553514 0.05066,-0.539724 0.262006,0.01378 0.595786,-0.06712 0.758436,0.220636 0.162653,0.287756 0.275797,0.59296 0.344744,0.799806 0.06895,0.206846 0.123754,0.619641 0.123754,0.619641 l -0.92356,0.800706 -0.248216,-0.248216 0.01278,-0.603366 z"
         id="path7550" />
      <path
         style="fill:#b2eebd;fill-opacity:1;stroke:none;stroke-width:0.264583px;stroke-linecap:butt;stroke-linejoin:miter;stroke-opacity:1"
         d="m 18.594857,1.5559296 c 0,0 -0.738465,2.023219 -0.724677,2.078376 0.01378,0.05516 0.330956,2.2753136 0.330956,2.2753136 0,0 0.206846,0.455062 0.330954,0.455062 0.124108,0 1.392767,-0.482642 1.461715,-0.482642 0.06895,0 0.353658,-0.494911 0.353658,-0.494911 l -0.429038,-0.54605 1.23372,-0.186328 0.179266,-0.5929596 -0.730856,-1.282449 -1.241081,-1.034232 z"
         id="path7552" />
      <path
         style="fill:#6fe585;fill-opacity:1;stroke:none;stroke-width:0.264583px;stroke-linecap:butt;stroke-linejoin:miter;stroke-opacity:1"
         d="m 13.380486,2.9835396 c 0,0 3.22012,-1.508959 4.341466,-1.538211 0.370533,0.039 0,-0.47779197 0,-0.47779197 0,0 -0.253521,-0.438788 -0.799568,-0.12676 -0.546047,0.31202597 -1.677144,0.93607997 -2.252443,1.06283897 -0.575299,0.126762 -1.121346,0.234022 -1.306613,0.390036 -0.185267,0.156012 -0.263271,0.331528 -0.224269,0.360781 0.039,0.02925 0.241427,0.329107 0.241427,0.329107 z"
         id="path7554" />
    </g>
    <g
       inkscape:groupmode="layer"
       id="layer35"
       inkscape:label="ol 1"
       style="display:inline">
      <g
         id="g6720"
         transform="matrix(-1,0,0,1,-35.310315,-30.300947)"
         style="stroke-width:0.4;stroke-miterlimit:4;stroke-dasharray:none">
        <path
           style="fill:none;stroke:#000000;stroke-width:0.4;stroke-linecap:butt;stroke-linejoin:miter;stroke-miterlimit:4;stroke-dasharray:none;stroke-opacity:1"
           d="m -52.518232,36.554403 c -1.061006,0.02935 -2.032393,0.0048 -2.389017,-0.115811 -0.737966,-0.249511 -0.887112,-0.633162 -0.750529,-0.750526 0.273632,-0.124873 0.417765,-0.503401 0.429037,-0.54605 0,0 -1.574807,0.18992 -1.306613,-0.819071 0.257803,-0.969899 1.336956,-2.259721 2.710733,-2.515713 1.305125,-0.243199 4.167053,0.872451 4.816914,1.365115 0.649233,0.492188 1.080607,0.947567 1.111594,1.657643 0.02987,0.684411 -0.108277,0.744579 -1.318035,1.117881 -0.611973,0.18884 -1.273122,0.503856 -2.14508,0.555655"
           id="path3001"
           sodipodi:nodetypes="csccsssssc" />
        <path
           style="fill:none;stroke:#000000;stroke-width:0.4;stroke-linecap:butt;stroke-linejoin:miter;stroke-miterlimit:4;stroke-dasharray:none;stroke-opacity:1"
           d="m -53.278574,31.768227 c 0.195017,-0.46804 0.897078,-1.813655 1.540632,-1.755151 0.643557,0.0585 -0.156012,1.287111 0.429038,1.131097 0.585049,-0.156012 1.735648,-0.58505 1.833157,-0.05851 0.09751,0.526545 -0.117009,0.741063 0.409536,0.741063 0.526544,0 1.053089,-0.195016 1.092094,0.292526 0.039,0.487543 -0.741064,1.287111 -0.741064,1.287111"
           id="path3003" />
        <path
           style="fill:none;stroke:#000000;stroke-width:0.3;stroke-linecap:round;stroke-linejoin:miter;stroke-miterlimit:4;stroke-dasharray:none;stroke-opacity:1"
           d="m -52.212387,35.422712 c 0.0195,0.546047 -0.705404,1.025917 -0.120355,1.493956 0.585049,0.46804 0.741064,0.507045 0.897078,0.409536 0.156011,-0.09751 0.156011,-0.292526 0.0195,-0.565547 -0.02765,-0.05531 -0.0369,-0.141827 -0.03406,-0.244642 0.01117,-0.404726 0.209581,-1.061971 0.209581,-1.061971"
           id="path3005"
           sodipodi:nodetypes="cssssc" />
        <path
           style="fill:none;stroke:#000000;stroke-width:0.4;stroke-linecap:butt;stroke-linejoin:miter;stroke-miterlimit:4;stroke-dasharray:none;stroke-opacity:1"
           d="m -48.053918,34.244938 c 0,0 1.893456,-1.560131 2.380999,-1.30661 0.487539,0.253521 -0.214519,0.780066 0.156011,1.170099 0.370533,0.390035 1.072592,0.760566 1.014087,1.150598 -0.05851,0.390036 -0.507042,0.312029 -0.526544,0.916581 -0.0195,0.604551 -0.477567,0.926288 -0.955583,0.624054 -0.515871,-0.326168 -0.790355,-0.590519 -1.127751,-0.866726 -0.568235,-0.465182 -0.919925,-0.439887 -0.919925,-0.439887"
           id="path3007"
           sodipodi:nodetypes="cssssssc" />
        <path
           style="fill:none;stroke:#000000;stroke-width:0.4;stroke-linecap:butt;stroke-linejoin:miter;stroke-miterlimit:4;stroke-dasharray:none;stroke-opacity:1"
           d="m -53.905174,31.856868 c 0.0025,-0.01244 0.851756,1.576675 0.731836,2.934713 -0.11564,1.309567 -0.399902,1.778878 -0.399902,1.778878"
           id="path6709"
           sodipodi:nodetypes="csc" />
        <ellipse
           style="fill:#000000;fill-opacity:1;stroke:none;stroke-width:0.4;stroke-linecap:round;stroke-linejoin:round;stroke-miterlimit:4;stroke-dasharray:none;stroke-opacity:1;paint-order:markers fill stroke"
           id="path6711"
           cx="-54.462681"
           cy="33.247128"
           rx="0.26890045"
           ry="0.27579531" />
      </g>
      <path
         style="fill:none;stroke:#000000;stroke-width:0.265;stroke-linecap:round;stroke-linejoin:round;stroke-miterlimit:4;stroke-dasharray:none;stroke-opacity:1"
         d="m 14.816203,1.1918046 c 0,0 0.653306,0.477793 0.643556,0.799571"
         id="path7556" />
      <path
         style="fill:none;stroke:#000000;stroke-width:0.265;stroke-linecap:round;stroke-linejoin:round;stroke-miterlimit:4;stroke-dasharray:none;stroke-opacity:1"
         d="m 12.544257,4.3023232 c -0.04875,0 -0.692308,-0.4290376 -1.238355,-0.4875426"
         id="path7558" />
      <path
         style="fill:none;stroke:#000000;stroke-width:0.265;stroke-linecap:round;stroke-linejoin:round;stroke-miterlimit:4;stroke-dasharray:none;stroke-opacity:1"
         d="m 12.427248,4.8191172 c 0,0 -1.287111,0.234019 -1.940417,0.624055"
         id="path7560" />
      <path
         style="fill:none;stroke:#000000;stroke-width:0.265;stroke-linecap:round;stroke-linejoin:round;stroke-miterlimit:4;stroke-dasharray:none;stroke-opacity:1"
         d="m 16.737117,0.70426563 c 0,0 0.273024,0.60454997 0.214519,0.88732397"
         id="path7562"
         sodipodi:nodetypes="cc" />
      <path
         style="fill:none;stroke:#000000;stroke-width:0.265;stroke-linecap:round;stroke-linejoin:round;stroke-miterlimit:4;stroke-dasharray:none;stroke-opacity:1"
         d="m 13.470587,2.2058916 c 0,0 0.536298,0.0098 0.497293,0.468043"
         id="path7564" />
      <path
         style="display:inline;fill:none;stroke:#000000;stroke-width:0.150325;stroke-linecap:round;stroke-linejoin:round;stroke-miterlimit:4;stroke-dasharray:none;stroke-opacity:1"
         d="m 16.806946,2.5112706 c -0.06221,-0.0034 -0.522414,0.08907 -0.492252,0.492353 0.01542,0.206167 0.285896,0.345364 0.468167,0.315519"
         id="path7216-1"
         sodipodi:nodetypes="csc" />
      <path
         style="display:inline;fill:none;stroke:#000000;stroke-width:0.150325;stroke-linecap:round;stroke-linejoin:round;stroke-miterlimit:4;stroke-dasharray:none;stroke-opacity:1"
         d="m 15.524498,3.4489746 c -0.06221,-0.0034 -0.522414,0.08907 -0.492252,0.492353 0.01542,0.206167 0.285896,0.3453636 0.468167,0.3155186"
         id="path7586"
         sodipodi:nodetypes="csc" />
      <path
         style="display:inline;fill:none;stroke:#000000;stroke-width:0.150325;stroke-linecap:round;stroke-linejoin:round;stroke-miterlimit:4;stroke-dasharray:none;stroke-opacity:1"
         d="m 17.399906,3.7799286 c -0.06221,-0.0034 -0.522414,0.08907 -0.492252,0.4923526 0.01542,0.206167 0.285896,0.345364 0.468167,0.315519"
         id="path7588"
         sodipodi:nodetypes="csc" />
    </g>
  </g>
</svg>
