<?xml version="1.0" encoding="UTF-8" standalone="no"?>
<svg
   xmlns:dc="http://purl.org/dc/elements/1.1/"
   xmlns:cc="http://creativecommons.org/ns#"
   xmlns:rdf="http://www.w3.org/1999/02/22-rdf-syntax-ns#"
   xmlns:svg="http://www.w3.org/2000/svg"
   xmlns="http://www.w3.org/2000/svg"
   xmlns:sodipodi="http://sodipodi.sourceforge.net/DTD/sodipodi-0.dtd"
   xmlns:inkscape="http://www.inkscape.org/namespaces/inkscape"
   width="110"
   height="100"
   viewBox="0 0 29.104168 26.458336"
   version="1.1"
   id="svg8"
   inkscape:version="1.0.2-2 (e86c870879, 2021-01-15)"
   sodipodi:docname="rightPurple1.svg">
  <defs
     id="defs2" />
  <sodipodi:namedview
     id="base"
     pagecolor="#ffffff"
     bordercolor="#666666"
     borderopacity="1.0"
     inkscape:pageopacity="0.0"
     inkscape:pageshadow="2"
     inkscape:zoom="0.70132728"
     inkscape:cx="860.11276"
     inkscape:cy="344.57418"
     inkscape:document-units="px"
     inkscape:current-layer="layer34"
     inkscape:document-rotation="0"
     showgrid="false"
     fit-margin-top="0"
     fit-margin-left="0"
     fit-margin-right="0"
     fit-margin-bottom="0"
     showguides="true"
     inkscape:guide-bbox="true"
     inkscape:window-width="1920"
     inkscape:window-height="991"
     inkscape:window-x="831"
     inkscape:window-y="1341"
     inkscape:window-maximized="1"
     units="px"
     width="110mm">
    <sodipodi:guide
       position="76.910648,0.14790893"
       orientation="0,-1"
       id="guide2237" />
    <sodipodi:guide
       position="431.29678,0.14790893"
       orientation="0,-1"
       id="guide2245" />
    <sodipodi:guide
       position="-25.136929,0.14790893"
       orientation="1,0"
       id="guide2249" />
    <sodipodi:guide
       position="58.621329,-0.15395647"
       orientation="0,-1"
       id="guide2807" />
    <sodipodi:guide
       position="2.7940884,151.96216"
       orientation="0,-1"
       id="guide2809" />
  </sodipodi:namedview>
  <metadata
     id="metadata5">
    <rdf:RDF>
      <cc:Work
         rdf:about="">
        <dc:format>image/svg+xml</dc:format>
        <dc:type
           rdf:resource="http://purl.org/dc/dcmitype/StillImage" />
        <dc:title></dc:title>
      </cc:Work>
    </rdf:RDF>
  </metadata>
  <g
     inkscape:groupmode="layer"
     id="layer34"
     inkscape:label="fish"
     transform="translate(0.38249999,9.3352753)"
     style="display:inline">
    <g
       inkscape:groupmode="layer"
       id="layer36"
       inkscape:label="color ">
      <g
         id="g3242"
         transform="translate(-199.27177,2.3597326)">
        <path
           style="fill:#d597e9;fill-opacity:1;stroke:none;stroke-width:0.47625;stroke-linecap:round;stroke-linejoin:round;stroke-miterlimit:4;stroke-dasharray:none;stroke-opacity:1"
           d="m 209.68718,-3.061329 c 0.11032,-0.413692 0.19306,-1.820249 1.29624,-1.516875 1.10318,0.303377 0.77223,0.937705 1.62719,1.075603 0.85497,0.137898 1.98573,-0.05516 2.31668,0.248216 0.33096,0.303374 0.46885,1.0756 1.02045,1.185921 0.55159,0.110318 1.04802,0.165475 1.29623,0.413692 0.24822,0.248216 0.71707,0.799806 0.79981,0.992862 0.0827,0.193058 -2.31668,0.882547 -2.31668,0.882547"
           id="path3230" />
        <path
           style="fill:#d597e9;fill-opacity:1;stroke:none;stroke-width:0.47625;stroke-linecap:round;stroke-linejoin:round;stroke-miterlimit:4;stroke-dasharray:none;stroke-opacity:1"
           d="m 217.85072,2.923429 c 1.29624,-0.937704 3.30955,-3.640497 4.24725,-3.088907 0.9377,0.55159 -0.0276,1.268659 0.52401,2.509737 0.55159,1.241078 0.57917,0.799806 0.71707,1.241078 0.1379,0.441275 -0.19306,0.02758 -0.68949,0.358535 -0.49643,0.330954 -0.30337,0.275796 -0.0552,0.827386 0.24822,0.55159 0.0827,1.572033 -0.24821,1.709931 -0.33096,0.137898 -0.63433,-0.49643 -2.73038,-1.434135 C 217.51973,4.10935 217.29909,4.13693 217.29909,4.13693"
           id="path3232" />
        <path
           style="fill:#a82bd0;fill-opacity:1;stroke:none;stroke-width:0.47625;stroke-linecap:round;stroke-linejoin:round;stroke-miterlimit:4;stroke-dasharray:none;stroke-opacity:1"
           d="m 205.43993,4.853996 c 0,0 1.51688,-0.799806 1.6272,-0.799806 0.11031,0 -2.45458,-0.08274 -2.64764,-1.0756 -0.19306,-0.992865 0.96529,-5.350431 4.55062,-5.984759 3.58534,-0.63433 7.06036,3.364701 8.88061,5.929598 0,0 0.11032,2.178784 -4.38514,3.419863 -4.49547,1.241079 -7.99807,-0.413696 -8.02565,-1.489296 z"
           id="path3234" />
        <path
           style="fill:#d597e9;fill-opacity:1;stroke:none;stroke-width:0.264583px;stroke-linecap:butt;stroke-linejoin:miter;stroke-opacity:1"
           d="m 211.89354,3.4750189 c 0,0 0.69421,0.2693025 0.83072,0.6788378 0.13651,0.409535 0.48754,0.6630569 0.78007,0.7605651 0.29252,0.097508 0.93608,0.23402 1.09209,0.058505 0.15601,-0.1755151 0.33153,-0.3315285 0.39003,-0.6630567 0.0585,-0.3315285 0.17552,-0.5655487 -0.078,-0.7410638 -0.25352,-0.175515 -0.72043,-0.315511 -1.1506,-0.6045517 L 213.32768,2.675213 c 0,0 -0.23289,-0.2570054 -0.52541,-0.1204936 -0.29252,0.1365117 -1.1506,-0.1170102 -1.34562,0.1365116 -0.19502,0.2535217 0.43689,0.7837879 0.43689,0.7837879 z"
           id="path3236"
           sodipodi:nodetypes="csssssscssc" />
        <path
           style="fill:#d597e9;fill-opacity:1;stroke:none;stroke-width:0.264583px;stroke-linecap:butt;stroke-linejoin:miter;stroke-opacity:1"
           d="m 205.8812,-0.93770399 c 0,0 2.35768,0.89870064 2.6502,1.54225589 0.29253,0.6435552 1.22861,1.2871105 1.05309,2.1061808 -0.17551,0.8190703 0.36421,3.0523571 -0.0975,3.5493047 -0.46171,0.4969475 -0.72156,0.3900334 -1.1701,0.3120268 -0.44854,-0.078007 -1.42362,-0.3315285 -2.18419,-0.7800671 -0.76056,-0.4485383 -0.69276,-0.9380011 -0.69276,-0.9380011 0,0 0.22472,-0.1345909 0.84878,-0.3491092 0.62405,-0.2145186 1.50163,-0.370532 0.48754,-0.429037 -1.01409,-0.058505 -1.79415,-0.4485386 -2.14518,-0.7410635 -0.35104,-0.2925252 -0.42904,-0.5460468 -0.27303,-1.0335888 0.15602,-0.4875418 0.13651,-1.2286054 0.50705,-1.77465231 0.37053,-0.54604687 0.52654,-1.28711048 0.52654,-1.28711048 z"
           id="path3238" />
        <path
           style="fill:#b647d9;fill-opacity:1;stroke:none;stroke-width:0.264583px;stroke-linecap:butt;stroke-linejoin:miter;stroke-opacity:1"
           d="m 209.82508,-3.6818675 c 0.56538,0.02758 1.04802,0.3723237 1.77888,0.5791702 0.73086,0.2068465 1.66856,0.4964315 2.16499,0.8549654 0.49643,0.358534 0.68949,0.6481186 1.47551,1.0204427 0.78601,0.37232421 1.64098,0.91012459 1.76509,0.97907341 0.1241,0.0689488 -1.28246,0.46885279 -1.28246,0.46885279 l -1.82024,-1.5858238 -2.01331,-1.241079 -2.20636,-0.4550631 z"
           id="path3240" />
      </g>
    </g>
    <g
       inkscape:groupmode="layer"
       id="layer35"
       inkscape:label="ol 1"
       style="display:inline">
      <g
         id="g3270"
         transform="translate(11.711658,-34.155562)">
        <path
           style="fill:none;stroke:#000000;stroke-width:0.47625;stroke-linecap:round;stroke-linejoin:round;stroke-miterlimit:4;stroke-dasharray:none;stroke-opacity:1"
           d="m -5.5434859,41.369297 c 0,0 1.5168742,-0.799806 1.6271922,-0.799806 0.1103183,0 -2.4545781,-0.08274 -2.6476348,-1.0756 -0.1930569,-0.992865 0.9652836,-5.350431 4.5506227,-5.984759 3.5853391,-0.63433 7.0603601,3.364701 8.8806093,5.929598 0,0 0.1103182,2.178784 -4.3851456,3.419863 -4.4954638,1.241079 -7.9980642,-0.413696 -8.0256438,-1.489296 z"
           id="path3244" />
        <path
           style="fill:none;stroke:#000000;stroke-width:0.47625;stroke-linecap:round;stroke-linejoin:round;stroke-miterlimit:4;stroke-dasharray:none;stroke-opacity:1"
           d="M -1.296238,33.453972 C -1.1859199,33.04028 -1.1031813,31.633723 0,31.937097 c 1.1031813,0.303377 0.7722269,0.937705 1.6271924,1.075603 0.8549655,0.137898 1.9857263,-0.05516 2.3166806,0.248216 0.3309544,0.303374 0.468852,1.0756 1.0204426,1.185921 0.5515907,0.110318 1.0480223,0.165475 1.2962382,0.413692 0.2482157,0.248216 0.7170677,0.799806 0.7998063,0.992862 0.082739,0.193058 -2.3166805,0.882547 -2.3166805,0.882547"
           id="path3246" />
        <path
           style="fill:none;stroke:#000000;stroke-width:0.47625;stroke-linecap:round;stroke-linejoin:round;stroke-miterlimit:4;stroke-dasharray:none;stroke-opacity:1"
           d="m -5.1022133,35.577597 c 0.8549653,0.193056 3.3647028,1.378977 3.6680776,3.58534 0.3033749,2.20636 0.050427,3.736045 -0.4460044,4.011841"
           id="path3248"
           sodipodi:nodetypes="csc" />
        <path
           style="fill:none;stroke:#000000;stroke-width:0.47625;stroke-linecap:round;stroke-linejoin:round;stroke-miterlimit:4;stroke-dasharray:none;stroke-opacity:1"
           d="m 2.3442602,39.190514 c 0,0 0.055159,0.358534 0.7722269,0.468852 0.7170679,0.110318 0.9101246,0.606751 0.8273859,1.020443 -0.082739,0.413694 -0.1930566,0.854966 -0.8825449,0.854966 -0.6894884,0 -1.0756018,-0.386114 -1.4065562,-0.910124 C 1.3238175,40.100638 1.1031813,39.99032 0.91012456,39.99032"
           id="path3250" />
        <path
           style="fill:none;stroke:#000000;stroke-width:0.47625;stroke-linecap:round;stroke-linejoin:round;stroke-miterlimit:4;stroke-dasharray:none;stroke-opacity:1"
           d="m 6.8673035,39.43873 c 1.2962379,-0.937704 3.3095435,-3.640497 4.2472475,-3.088907 0.937704,0.55159 -0.02758,1.268659 0.524011,2.509737 0.551591,1.241078 0.579171,0.799806 0.717068,1.241078 0.137898,0.441275 -0.193056,0.02758 -0.689488,0.358535 -0.496432,0.330954 -0.303375,0.275796 -0.05516,0.827386 0.248216,0.55159 0.08274,1.572033 -0.248216,1.709931 C 11.031813,43.134388 10.728438,42.50006 8.6323934,41.562355 6.5363491,40.624651 6.4473491,40.691234 6.4473491,40.691234"
           id="path3252"
           sodipodi:nodetypes="csssssssc" />
        <path
           style="fill:none;stroke:#000000;stroke-width:0.276;stroke-linecap:round;stroke-linejoin:round;stroke-miterlimit:4;stroke-dasharray:none;stroke-opacity:1"
           d="M 6.8673035,39.43873 C 7.4188941,39.714527 9.073666,38.776822 9.8183133,39.218094"
           id="path3254" />
        <path
           style="fill:none;stroke:#000000;stroke-width:0.276;stroke-linecap:round;stroke-linejoin:round;stroke-miterlimit:4;stroke-dasharray:none;stroke-opacity:1"
           d="m 6.7112901,40.147721 c 0,0 1.6453079,0.587248 2.4451145,0.44935"
           id="path3256"
           sodipodi:nodetypes="cc" />
        <ellipse
           style="fill:#000000;fill-opacity:1;stroke:none;stroke-width:0.47625;stroke-linecap:round;stroke-linejoin:round;stroke-miterlimit:4;stroke-dasharray:none;stroke-opacity:1;paint-order:markers fill stroke"
           id="ellipse3258"
           cx="-3.3908966"
           cy="38.546555"
           rx="0.38611344"
           ry="0.34474415" />
        <path
           style="fill:none;stroke:#000000;stroke-width:0.265;stroke-linecap:round;stroke-linejoin:round;stroke-miterlimit:4;stroke-dasharray:none;stroke-opacity:1"
           d="m -0.62814438,35.225958 c 0.258809,-4.47e-4 0.71095,0.35409 0.642312,0.717655 -0.145407,0.770197 -0.697471,0.81301 -0.697471,0.81301"
           id="path3260"
           sodipodi:nodetypes="csc" />
        <path
           style="fill:none;stroke:#000000;stroke-width:0.265;stroke-linecap:round;stroke-linejoin:round;stroke-miterlimit:4;stroke-dasharray:none;stroke-opacity:1"
           d="m -0.07655388,36.494616 c 0.258809,-4.47e-4 0.71095,0.35409 0.642312,0.717655 -0.145407,0.770197 -0.697471,0.81301 -0.697471,0.81301"
           id="path3262"
           sodipodi:nodetypes="csc" />
        <path
           style="fill:none;stroke:#000000;stroke-width:0.265;stroke-linecap:round;stroke-linejoin:round;stroke-miterlimit:4;stroke-dasharray:none;stroke-opacity:1"
           d="m 2.7641377,36.604934 c 0.258809,-4.47e-4 0.71095,0.35409 0.642312,0.717655 -0.145407,0.770197 -0.697471,0.81301 -0.697471,0.81301"
           id="path3264"
           sodipodi:nodetypes="csc" />
        <path
           style="fill:none;stroke:#000000;stroke-width:0.265;stroke-linecap:round;stroke-linejoin:round;stroke-miterlimit:4;stroke-dasharray:none;stroke-opacity:1"
           d="m 2.4683666,34.584734 c 0.096528,-0.05516 0.7998063,-0.220636 1.0618126,-0.482642"
           id="path3266" />
        <path
           style="fill:none;stroke:#000000;stroke-width:0.265;stroke-linecap:round;stroke-linejoin:round;stroke-miterlimit:4;stroke-dasharray:none;stroke-opacity:1"
           d="m 4.0266116,36.018869 c 0,0 0.3861117,-0.01379 1.0204423,-0.358533"
           id="path3268" />
      </g>
    </g>
  </g>
</svg>
