<?xml version="1.0" encoding="UTF-8" standalone="no"?>
<svg
   xmlns:dc="http://purl.org/dc/elements/1.1/"
   xmlns:cc="http://creativecommons.org/ns#"
   xmlns:rdf="http://www.w3.org/1999/02/22-rdf-syntax-ns#"
   xmlns:svg="http://www.w3.org/2000/svg"
   xmlns="http://www.w3.org/2000/svg"
   xmlns:sodipodi="http://sodipodi.sourceforge.net/DTD/sodipodi-0.dtd"
   xmlns:inkscape="http://www.inkscape.org/namespaces/inkscape"
   width="110"
   height="90"
   viewBox="0 0 29.104169 23.812502"
   version="1.1"
   id="svg8"
   inkscape:version="1.0.2-2 (e86c870879, 2021-01-15)"
   sodipodi:docname="rightYellow1.svg">
  <defs
     id="defs2" />
  <sodipodi:namedview
     id="base"
     pagecolor="#ffffff"
     bordercolor="#666666"
     borderopacity="1.0"
     inkscape:pageopacity="0.0"
     inkscape:pageshadow="2"
     inkscape:zoom="2.8053091"
     inkscape:cx="158.92537"
     inkscape:cy="64.291646"
     inkscape:document-units="mm"
     inkscape:current-layer="layer34"
     inkscape:document-rotation="0"
     showgrid="false"
     fit-margin-top="0"
     fit-margin-left="0"
     fit-margin-right="0"
     fit-margin-bottom="0"
     showguides="true"
     inkscape:guide-bbox="true"
     inkscape:window-width="1920"
     inkscape:window-height="991"
     inkscape:window-x="831"
     inkscape:window-y="1341"
     inkscape:window-maximized="1"
     units="px">
    <sodipodi:guide
       position="76.910648,0.14790893"
       orientation="0,-1"
       id="guide2237" />
    <sodipodi:guide
       position="431.29678,0.14790893"
       orientation="0,-1"
       id="guide2245" />
    <sodipodi:guide
       position="-25.136929,0.14790893"
       orientation="1,0"
       id="guide2249" />
    <sodipodi:guide
       position="58.621329,-0.15395647"
       orientation="0,-1"
       id="guide2807" />
    <sodipodi:guide
       position="2.7940884,151.96216"
       orientation="0,-1"
       id="guide2809" />
  </sodipodi:namedview>
  <metadata
     id="metadata5">
    <rdf:RDF>
      <cc:Work
         rdf:about="">
        <dc:format>image/svg+xml</dc:format>
        <dc:type
           rdf:resource="http://purl.org/dc/dcmitype/StillImage" />
        <dc:title></dc:title>
      </cc:Work>
    </rdf:RDF>
  </metadata>
  <g
     inkscape:groupmode="layer"
     id="layer34"
     inkscape:label="fish"
     transform="translate(0.38249999,9.3352753)"
     style="display:inline">
    <g
       inkscape:groupmode="layer"
       id="layer36"
       inkscape:label="color " />
    <g
       inkscape:groupmode="layer"
       id="layer35"
       inkscape:label="ol 1"
       style="display:inline">
      <path
         style="display:inline;fill:#f7fab9;fill-opacity:1;stroke:none;stroke-width:0.405143;stroke-linecap:butt;stroke-linejoin:miter;stroke-miterlimit:4;stroke-dasharray:none;stroke-opacity:1"
         d="m 18.80151,0.49591049 c 0.02744,-0.45684248 1.287568,-0.98507171 0.356126,-1.35625866 -0.931432,-0.37118603 -0.904027,-0.18558763 -1.13688,-0.74237103 -0.232863,-0.5567804 0.205399,-0.9707971 -1.191709,-1.0564555 -1.397139,-0.08566 -0.671184,0.1427598 -0.821852,-0.2284203 -0.150668,-0.3711889 -0.602691,-1.2706022 -2.479258,-1.2134978 -1.876566,0.057106 -1.602615,-1.2277705 -3.5887718,-0.4996732 -1.9861367,0.7280973 -0.1506679,-1.3848118 -1.5341134,-0.4282923 -1.3834552,0.9565196 -2.71213,0.9850737 -3.0545633,5.22516373"
         id="path3136" />
      <path
         style="display:inline;fill:#ecf35f;fill-opacity:1;stroke:none;stroke-width:0.405143;stroke-linecap:butt;stroke-linejoin:miter;stroke-miterlimit:4;stroke-dasharray:none;stroke-opacity:1"
         d="m 13.091543,8.6623776 c 4.069845,-0.1890434 7.488972,-1.2921104 9.120656,-4.3118417 0.397234,-1.3277035 0.08223,-1.7131661 0.08223,-1.7131661 0,0 -4.328419,-3.05514914 -7.506265,-3.29784987 C 11.610322,-0.90317788 7.5695464,-1.2458108 4.4054126,0.71005419 1.2412787,2.6659239 0.51530482,3.3511906 0.22764213,3.5796128 -0.06000109,3.8080331 1.8302579,3.7080971 1.4878148,4.2506019 c -0.3424334,0.5425029 -0.75335927,0 -0.2465361,0.742371 0.506794,0.7423729 2.2690892,3.2485135 7.9171907,3.6119315 0.7326304,0.047131 1.4568336,0.077271 2.1672266,0.08563"
         id="path3138"
         sodipodi:nodetypes="cccssssssc" />
      <path
         style="display:inline;fill:#f7fab9;fill-opacity:1;stroke:none;stroke-width:0.292787px;stroke-linecap:butt;stroke-linejoin:miter;stroke-opacity:1"
         d="m 7.1406751,-0.39308097 c 0,0 1.5242454,2.61526437 1.1655307,4.79629037 C 7.9474522,6.5842364 7.3905005,8.0738413 6.4433128,8.2481858 5.4961251,8.4225361 3.1643922,6.6465531 2.6860833,6.553078 2.2077452,6.4595942 1.0119777,4.7770998 1.0119777,4.7770998 L 1.4902867,3.9981606 0.23472689,3.5619554 1.0119777,2.8764902 4.4498286,0.50851514 Z"
         id="path3140" />
      <path
         style="display:inline;fill:#f7fab9;fill-opacity:1;stroke:none;stroke-width:0.405143;stroke-linecap:butt;stroke-linejoin:miter;stroke-miterlimit:4;stroke-dasharray:none;stroke-opacity:1"
         d="M 22.294385,2.6373698 C 22.39034,2.494609 27.006363,-0.86034817 26.978978,0.61012209 26.951534,2.0805904 26.129722,2.1234191 26.82831,2.3375647 27.526889,2.5517114 28.225458,2.3232103 27.883025,3.0942142 27.540591,3.8651413 27.074866,3.608165 27.047461,4.179222 27.020021,4.750277 27.21186,5.4783743 26.814608,5.792454 26.417384,6.1065347 26.225609,5.77809 26.348892,6.263575 26.472097,6.7489716 26.49956,7.005948 26.116048,7.2486468 25.732508,7.4913446 25.335275,7.676939 24.951734,7.8197018 24.568223,7.9624617 24.458633,7.7197697 24.212068,7.1915405 23.965532,6.6633161 24.143556,6.6633161 23.787449,6.3349569 23.431323,6.0066007 23.03409,5.4069915 22.773832,4.8787652 22.513584,4.3505359 22.150208,4.4369642 22.253326,4.2684491 c 0.152118,-0.2486352 0.17127,-1.4669016 0.04097,-1.6310793 z"
         id="path3142"
         sodipodi:nodetypes="csssssssssssscc" />
      <path
         style="display:inline;fill:#f7fab9;fill-opacity:1;stroke:none;stroke-width:0.405143;stroke-linecap:butt;stroke-linejoin:miter;stroke-miterlimit:4;stroke-dasharray:none;stroke-opacity:1"
         d="M 20.235687,6.7945156 C 20.196957,7.1175534 20.855565,8.813503 20.08064,8.6923633 19.305783,8.5712246 17.09746,8.0059074 17.329914,8.0059074 c 0.232473,0 1.782167,-0.6864549 1.782167,-0.6864549 L 20.20657,6.6027112 Z"
         id="path3144" />
      <path
         style="display:inline;fill:#f7fab9;fill-opacity:1;stroke:none;stroke-width:0.292787px;stroke-linecap:butt;stroke-linejoin:miter;stroke-opacity:1"
         d="M 13.268633,5.0886765 C 13.029503,4.7770998 12.850136,4.2162622 12.610967,4.5589972 12.371808,4.9017293 11.504888,7.5189625 11.504888,7.5189625 l -0.179182,1.1715751 -1.124307,0.082574 -0.2320846,1.1695986 0.4439166,0.4626654 0.601777,0.02331 0.360019,0.450377 1.056923,0.396571 1.236602,-0.374538 L 13.488962,10.141 13.091689,8.6623738 13.077089,6.560848 13.301232,5.8253963 c 0,0 0.11758,-0.4794154 -0.03202,-0.7367256 z"
         id="path3146" />
      <path
         style="display:inline;fill:#bfc275;fill-opacity:1;stroke:none;stroke-width:0.292787px;stroke-linecap:butt;stroke-linejoin:miter;stroke-opacity:1"
         d="m 18.80151,0.49590855 c 0,0 -0.06219,-1.23369328 -3.32067,-1.85684475 C 12.222346,-1.9840866 10.637939,-1.516724 10.069961,-1.6101961 9.5019732,-1.7036799 8.5453359,-1.8906154 7.797991,-1.8594561 7.0506461,-1.8283046 5.8548689,-2.607238 5.8548689,-2.607238 L 5.3504885,0.19610543 8.3062058,-0.70662736 h 4.6037222 l 2.75025,0.15578785 z"
         id="path3148" />
      <path
         style="display:inline;fill:#bfc275;fill-opacity:1;stroke:#000000;stroke-width:0.292787px;stroke-linecap:butt;stroke-linejoin:miter;stroke-opacity:1"
         d="M 11.325647,8.6905376 11.01494,10.428694 10.413163,10.405367 9.969256,9.9427019 10.201331,8.7731033 Z"
         id="path3150" />
      <g
         id="g3176"
         transform="matrix(-0.70237948,0,0,0.73206017,32.362111,-3.9868793)"
         style="display:inline;stroke-width:0.711032;stroke-miterlimit:4;stroke-dasharray:none">
        <path
           style="display:inline;fill:none;stroke:#000000;stroke-width:0.711032;stroke-linecap:butt;stroke-linejoin:miter;stroke-miterlimit:4;stroke-dasharray:none;stroke-opacity:1"
           d="m 35.908551,4.9091566 c 0,0 -1.985727,3.3647031 -1.709931,6.9500424 0.275794,3.585339 2.702793,4.853997 2.702793,4.853997"
           id="path3152" />
        <path
           style="display:inline;fill:#f7fab9;fill-opacity:1;stroke:#000000;stroke-width:0.711032;stroke-linecap:round;stroke-linejoin:miter;stroke-miterlimit:4;stroke-dasharray:none;stroke-opacity:1"
           d="m 27.138259,13.403653 c 0,0 0.882544,3.309543 0.05516,5.184952 -0.827387,1.875408 -0.441275,2.096044 0.441272,2.261521 0.882544,0.165477 2.316681,-0.165477 2.482156,-0.661909 0.165479,-0.496431 -0.386111,-5.405588 -1.434134,-7.06036"
           id="path3154" />
        <path
           style="display:inline;fill:none;stroke:#000000;stroke-width:0.711032;stroke-linecap:butt;stroke-linejoin:miter;stroke-miterlimit:4;stroke-dasharray:none;stroke-opacity:1"
           d="m 31.550985,17.430264 c 0.110318,0.717068 0.992862,2.592476 -1.15834,2.261522"
           id="path3156" />
        <path
           style="display:inline;fill:none;stroke:#000000;stroke-width:0.711032;stroke-linecap:butt;stroke-linejoin:miter;stroke-miterlimit:4;stroke-dasharray:none;stroke-opacity:1"
           d="m 17.264787,14.72747 c 0.05516,0.441272 -0.882545,2.757953 0.220636,2.592476 1.103182,-0.165477 4.247248,-0.937704 3.916294,-0.937704 -0.330955,0 -2.537317,-0.937704 -2.537317,-0.937704 l -1.558244,-0.979074 z"
           id="path3158" />
        <path
           style="display:inline;fill:none;stroke:#000000;stroke-width:0.711032;stroke-linecap:round;stroke-linejoin:miter;stroke-miterlimit:4;stroke-dasharray:none;stroke-opacity:1"
           d="M 9.4973151,9.0780292 C 11.884359,9.2801329 14.154046,9.6794474 14.138714,9.6923319"
           id="path3160"
           sodipodi:nodetypes="cc" />
        <path
           style="display:inline;fill:none;stroke:#000000;stroke-width:0.711032;stroke-linecap:round;stroke-linejoin:miter;stroke-miterlimit:4;stroke-dasharray:none;stroke-opacity:1"
           d="M 9.6151371,12.925452 C 10.141682,12.769439 14.197219,10.608911 14.197219,10.608911"
           id="path3162"
           sodipodi:nodetypes="cc" />
        <ellipse
           style="display:inline;fill:#000000;fill-opacity:1;stroke:none;stroke-width:0.711032;stroke-linecap:round;stroke-linejoin:round;stroke-miterlimit:4;stroke-dasharray:none;stroke-opacity:1;paint-order:markers fill stroke"
           id="ellipse3164"
           cx="38.556187"
           cy="9.4184103"
           rx="0.6343292"
           ry="0.64811903" />
        <path
           style="fill:none;stroke:#000000;stroke-width:0.711032;stroke-linecap:butt;stroke-linejoin:miter;stroke-miterlimit:4;stroke-dasharray:none;stroke-opacity:1"
           d="m 14.333731,9.0487758 c -0.136512,-0.195016 -6.7085762,-4.777909 -6.6695729,-2.769238 0.039003,2.008672 1.2091037,2.067177 0.2145183,2.359703 -0.9945854,0.292526 -1.9891708,-0.0195 -1.5016289,1.033589 0.4875419,1.0530902 1.1505988,0.7020592 1.1896021,1.4821272 0.039003,0.780066 -0.23402,1.774653 0.3315285,2.203688 0.5655487,0.429038 0.838572,-0.0195 0.6630569,0.643557 -0.1755151,0.663056 -0.2145183,1.014087 0.3315285,1.345615 0.5460468,0.331528 1.1115955,0.58505 1.6576425,0.780066 0.546047,0.195016 0.70206,-0.136512 1.05309,-0.858073 0.351031,-0.721561 0.09751,-0.721561 0.604553,-1.170101 0.507043,-0.448538 1.072592,-1.267608 1.443123,-1.989169 0.370532,-0.721564 0.887876,-0.603505 0.741064,-0.833698 -0.216613,-0.339636 -0.243771,-2.0037969 -0.05851,-2.2280662 z"
           id="path3166"
           sodipodi:nodetypes="csssssssssssscc" />
        <path
           style="fill:none;stroke:#000000;stroke-width:0.711032;stroke-linecap:butt;stroke-linejoin:miter;stroke-miterlimit:4;stroke-dasharray:none;stroke-opacity:1"
           d="M 27.436116,17.278984 C 21.641756,17.020747 16.77383,15.513951 14.450741,11.388976 13.885192,9.5753208 14.333731,9.0487758 14.333731,9.0487758 c 0,0 6.162529,-4.173357 10.686917,-4.504886 4.524388,-0.331528 10.277382,-0.799568 14.782269,1.87216 4.504886,2.671731 5.538476,3.6078112 5.948011,3.9198372 0.409535,0.312025 -2.281698,0.175514 -1.794155,0.916577 0.487542,0.741066 1.072591,0 0.35103,1.014087 -0.721561,1.014087 -3.230585,4.437494 -11.271967,4.933926 -1.043066,0.06439 -2.074141,0.105545 -3.085566,0.116975"
           id="path3168"
           sodipodi:nodetypes="cccssssssc" />
        <path
           style="fill:none;stroke:#000000;stroke-width:0.711032;stroke-linecap:butt;stroke-linejoin:miter;stroke-miterlimit:4;stroke-dasharray:none;stroke-opacity:1"
           d="m 19.306658,6.1235238 c -0.039,-0.624051 -1.833158,-1.345615 -0.507044,-1.852657 1.326114,-0.507045 1.287111,-0.253521 1.618639,-1.014087 0.331529,-0.760566 -0.292525,-1.326116 1.696646,-1.443125 1.989171,-0.117009 0.955582,0.195016 1.1701,-0.312026 0.214519,-0.50704504 0.858074,-1.73565104 3.529803,-1.65764404 2.671729,0.07801 2.281696,-1.67714296 5.109439,-0.682558 2.827742,0.994587 0.214518,-1.89166296 2.184187,-0.58504996 1.969669,1.30661296 3.861331,1.34561596 4.348873,7.137612"
           id="path3170" />
        <path
           style="fill:none;stroke:#000000;stroke-width:0.767867px;stroke-linecap:round;stroke-linejoin:round;stroke-opacity:1"
           d="m 32.383267,0.70623291 c 0,0 1.463441,1.66478779 0.623664,3.60802799"
           id="path3172"
           sodipodi:nodetypes="cc" />
        <path
           style="fill:none;stroke:#000000;stroke-width:0.767867px;stroke-linecap:round;stroke-linejoin:round;stroke-opacity:1"
           d="m 26.899986,1.6304565 c 0,0 1.185574,1.3744874 0.543392,2.6778803"
           id="path3174" />
      </g>
      <path
         style="display:inline;fill:none;stroke:#000000;stroke-width:0.293247;stroke-linecap:round;stroke-linejoin:round;stroke-miterlimit:4;stroke-dasharray:none;stroke-opacity:1"
         d="m 11.534794,0.25925517 c 0.280519,-5.0314e-4 0.770604,0.40002815 0.696214,0.81076033 -0.157539,0.8701166 -0.756006,0.9184847 -0.756006,0.9184847"
         id="path3178"
         sodipodi:nodetypes="csc" />
      <path
         style="display:inline;fill:none;stroke:#000000;stroke-width:0.293247;stroke-linecap:round;stroke-linejoin:round;stroke-miterlimit:4;stroke-dasharray:none;stroke-opacity:1"
         d="m 9.771019,4.0916327 c 0.1159156,-0.0071 0.972578,0.1820706 0.916426,1.0064068 -0.02871,0.4214206 -0.532262,0.7059477 -0.8715818,0.6449438"
         id="path3180"
         sodipodi:nodetypes="csc" />
      <path
         style="display:inline;fill:none;stroke:#000000;stroke-width:0.293247;stroke-linecap:round;stroke-linejoin:round;stroke-miterlimit:4;stroke-dasharray:none;stroke-opacity:1"
         d="m 16.557013,1.7236595 c 0,0 0.62779,0 0.597884,0.9970438 -0.02997,0.997039 -0.86693,0.74778 -0.86693,0.74778"
         id="path3182" />
      <path
         style="display:inline;fill:none;stroke:#000000;stroke-width:0.293247;stroke-linecap:round;stroke-linejoin:round;stroke-miterlimit:4;stroke-dasharray:none;stroke-opacity:1"
         d="m 15.291089,2.876172 c 0.28052,-5.031e-4 0.770614,0.4000281 0.696214,0.8107603 -0.157539,0.8701186 -0.756006,0.9184847 -0.756006,0.9184847"
         id="path3184"
         sodipodi:nodetypes="csc" />
    </g>
  </g>
</svg>
