<?xml version="1.0" encoding="UTF-8" standalone="no"?>
<svg
   xmlns:dc="http://purl.org/dc/elements/1.1/"
   xmlns:cc="http://creativecommons.org/ns#"
   xmlns:rdf="http://www.w3.org/1999/02/22-rdf-syntax-ns#"
   xmlns:svg="http://www.w3.org/2000/svg"
   xmlns="http://www.w3.org/2000/svg"
   xmlns:sodipodi="http://sodipodi.sourceforge.net/DTD/sodipodi-0.dtd"
   xmlns:inkscape="http://www.inkscape.org/namespaces/inkscape"
   width="110"
   height="100"
   viewBox="0 0 29.104168 26.458335"
   version="1.1"
   id="svg8"
   inkscape:version="1.0.2-2 (e86c870879, 2021-01-15)"
   sodipodi:docname="rightBlue1.svg">
  <defs
     id="defs2" />
  <sodipodi:namedview
     id="base"
     pagecolor="#ffffff"
     bordercolor="#666666"
     borderopacity="1.0"
     inkscape:pageopacity="0.0"
     inkscape:pageshadow="2"
     inkscape:zoom="0.99182655"
     inkscape:cx="506.80327"
     inkscape:cy="298.35988"
     inkscape:document-units="mm"
     inkscape:current-layer="layer34"
     inkscape:document-rotation="0"
     showgrid="false"
     fit-margin-top="0"
     fit-margin-left="0"
     fit-margin-right="0"
     fit-margin-bottom="0"
     showguides="true"
     inkscape:guide-bbox="true"
     inkscape:window-width="1920"
     inkscape:window-height="991"
     inkscape:window-x="831"
     inkscape:window-y="1341"
     inkscape:window-maximized="1"
     units="px"
     width="110mm">
    <sodipodi:guide
       position="76.910648,0.14790893"
       orientation="0,-1"
       id="guide2237" />
    <sodipodi:guide
       position="431.29678,0.14790893"
       orientation="0,-1"
       id="guide2245" />
    <sodipodi:guide
       position="-25.136929,0.14790893"
       orientation="1,0"
       id="guide2249" />
    <sodipodi:guide
       position="58.621329,-0.15395647"
       orientation="0,-1"
       id="guide2807" />
    <sodipodi:guide
       position="2.7940884,151.96216"
       orientation="0,-1"
       id="guide2809" />
  </sodipodi:namedview>
  <metadata
     id="metadata5">
    <rdf:RDF>
      <cc:Work
         rdf:about="">
        <dc:format>image/svg+xml</dc:format>
        <dc:type
           rdf:resource="http://purl.org/dc/dcmitype/StillImage" />
        <dc:title></dc:title>
      </cc:Work>
    </rdf:RDF>
  </metadata>
  <g
     inkscape:groupmode="layer"
     id="layer34"
     inkscape:label="fish"
     transform="translate(0.38249999,9.3352753)"
     style="display:inline">
    <g
       inkscape:groupmode="layer"
       id="layer36"
       inkscape:label="color ">
      <path
         style="fill:#a8abea;fill-opacity:1;stroke:none;stroke-width:0.187086;stroke-linecap:butt;stroke-linejoin:miter;stroke-miterlimit:4;stroke-dasharray:none;stroke-opacity:1"
         d="m 17.302305,2.4607109 c 0.0129,-0.20664 0.60701,-0.44557 0.1679,-0.613465 -0.43911,-0.167896 -0.4262,-0.08395 -0.53598,-0.335791 -0.10978,-0.251844 0.0969,-0.439113 -0.5618,-0.477857 -0.65867,-0.03874 -0.31642,0.06458 -0.38746,-0.10332101 -0.071,-0.167896 -0.28413,-0.57471997 -1.16881,-0.54888997 -0.88468,0.02583 -0.75553,-0.555347 -1.69187,-0.226013 -0.93634,0.329334 -0.071,-0.626381 -0.72324,-0.193726 -0.65221,0.432654 -1.27859,0.44557 -1.44003,2.36345498"
         id="path3314" />
      <path
         style="fill:#4d53d5;fill-opacity:1;stroke:none;stroke-width:0.187086;stroke-linecap:butt;stroke-linejoin:miter;stroke-miterlimit:4;stroke-dasharray:none;stroke-opacity:1"
         d="m 14.610425,6.1545799 c 1.91867,-0.08551 3.53057,-0.584449 4.2998,-1.950339 0.18727,-0.600549 0.0387,-0.774902 0.0387,-0.774902 0,0 -2.04058,-1.38191 -3.53873,-1.491688 -1.49814,-0.109778 -3.40311,-0.264758 -4.8948,0.619922 -1.4916898,0.884681 -1.8339398,1.194642 -1.9695398,1.297963 -0.13561,0.103319 0.75553,0.05812 0.59409,0.303503 -0.16144,0.245386 -0.35516,0 -0.11624,0.335791 0.23893,0.335791 1.0697398,1.469373 3.7324498,1.633754 0.34539,0.02132 0.6868,0.03495 1.02172,0.03873"
         id="path3316"
         sodipodi:nodetypes="cccssssssc" />
      <path
         style="fill:#a8abea;fill-opacity:1;stroke:none;stroke-width:0.135203px;stroke-linecap:butt;stroke-linejoin:miter;stroke-opacity:1"
         d="m 11.804975,2.0586009 c 0,0 0.71859,1.18294 0.54947,2.169465 -0.16912,0.986526 -0.4317,1.660307 -0.87823,1.739167 -0.44654,0.07886 -1.5458097,-0.724454 -1.7712998,-0.766734 -0.22549,-0.04228 -0.78922,-0.803314 -0.78922,-0.803314 l 0.22549,-0.352331 -0.59191,-0.197305 0.36642,-0.31005 1.6207198,-1.071087 z"
         id="path3318" />
      <path
         style="fill:#a8abea;fill-opacity:1;stroke:none;stroke-width:0.187086;stroke-linecap:butt;stroke-linejoin:miter;stroke-miterlimit:4;stroke-dasharray:none;stroke-opacity:1"
         d="m 18.948975,3.4293389 c 0.0452,-0.06457 2.22139,-1.582093 2.20848,-0.916968 -0.0129,0.665125 -0.40037,0.684497 -0.071,0.78136 0.32933,0.09686 0.65867,-0.0065 0.49723,0.342249 -0.16144,0.348707 -0.38099,0.232471 -0.39391,0.490772 -0.0129,0.258301 0.0775,0.587635 -0.10978,0.7297 -0.18726,0.142065 -0.27767,-0.0065 -0.21955,0.213099 0.0581,0.219555 0.071,0.335791 -0.10978,0.445569 -0.18081,0.109778 -0.36808,0.193725 -0.54889,0.2583 -0.18081,0.06458 -0.23247,-0.0452 -0.34871,-0.28413 -0.11623,-0.238929 -0.0323,-0.238929 -0.20018,-0.387452 -0.1679,-0.148523 -0.35516,-0.419739 -0.47786,-0.658667 -0.12269,-0.238929 -0.294,-0.199837 -0.24538,-0.27606 0.0717,-0.112462 0.0807,-0.66351 0.0194,-0.737772 z"
         id="path3320"
         sodipodi:nodetypes="csssssssssssscc" />
      <path
         style="display:inline;fill:#a8abea;fill-opacity:1;stroke:none;stroke-width:0.187086;stroke-linecap:butt;stroke-linejoin:miter;stroke-miterlimit:4;stroke-dasharray:none;stroke-opacity:1"
         d="m 17.978425,5.3097059 c -0.0182,0.146117 0.29223,0.913232 -0.0731,0.858438 -0.36529,-0.05479 -1.40638,-0.310499 -1.29679,-0.310499 0.10959,0 0.84017,-0.310499 0.84017,-0.310499 l 0.51598,-0.324197 z"
         id="path3322" />
      <path
         style="fill:#a8abea;fill-opacity:1;stroke:none;stroke-width:0.135203px;stroke-linecap:butt;stroke-linejoin:miter;stroke-opacity:1"
         d="m 14.693925,4.5381179 c -0.11275,-0.140933 -0.19731,-0.394612 -0.31006,-0.239585 -0.11274,0.155025 -0.52145,1.338856 -0.52145,1.338856 l -0.0845,0.529929 -0.53004,0.03735 -0.10942,0.529034 0.20928,0.209274 0.28369,0.01055 0.16973,0.203714 0.49828,0.179378 0.58297,-0.169412 -0.0847,-0.343807 -0.18729,-0.668815 -0.007,-0.950566 0.10567,-0.332661 c 0,0 0.0555,-0.21685 -0.0151,-0.333236 z"
         id="path3324" />
      <path
         style="fill:#767ade;fill-opacity:1;stroke:none;stroke-width:0.135203px;stroke-linecap:butt;stroke-linejoin:miter;stroke-opacity:1"
         d="m 17.302305,2.4607099 c 0,0 -0.0293,-0.558027 -1.56549,-0.839892 -1.53616,-0.281864 -2.2831,-0.07046 -2.55088,-0.112745 -0.26777,-0.04228 -0.71875,-0.126839 -1.07108,-0.112746 -0.35233,0.01409 -0.91606,-0.338238 -0.91606,-0.338238 l -0.23778,1.268014 1.39343,-0.408326 h 2.17035 l 1.29658,0.07047 z"
         id="path3326" />
      <path
         style="fill:#767ade;fill-opacity:1;stroke:#000000;stroke-width:0.135203px;stroke-linecap:butt;stroke-linejoin:miter;stroke-opacity:1"
         d="m 13.777925,6.1673179 -0.14649,0.786205 -0.28369,-0.01055 -0.20928,-0.209274 0.10942,-0.529034 z"
         id="path3328" />
    </g>
    <g
       inkscape:groupmode="layer"
       id="layer35"
       inkscape:label="ol 1"
       style="display:inline">
      <g
         id="g3350"
         transform="matrix(-0.33112667,0,0,0.33112667,23.695255,0.43304792)"
         style="stroke-width:0.999617;stroke-miterlimit:4;stroke-dasharray:none">
        <path
           style="display:inline;fill:none;stroke:#000000;stroke-width:0.999617;stroke-linecap:butt;stroke-linejoin:miter;stroke-miterlimit:4;stroke-dasharray:none;stroke-opacity:1"
           d="m 35.908551,4.9091566 c 0,0 -1.985727,3.3647031 -1.709931,6.9500424 0.275794,3.585339 2.702793,4.853997 2.702793,4.853997"
           id="path3330" />
        <path
           style="display:inline;fill:none;stroke:#000000;stroke-width:0.999617;stroke-linecap:round;stroke-linejoin:miter;stroke-miterlimit:4;stroke-dasharray:none;stroke-opacity:1"
           d="m 27.138259,13.403653 c 0,0 0.882544,3.309543 0.05516,5.184952 -0.827387,1.875408 -0.441275,2.096044 0.441272,2.261521 0.882544,0.165477 2.316681,-0.165477 2.482156,-0.661909 0.165479,-0.496431 -0.386111,-5.405588 -1.434134,-7.06036"
           id="path3332" />
        <path
           style="display:inline;fill:none;stroke:#000000;stroke-width:0.999617;stroke-linecap:butt;stroke-linejoin:miter;stroke-miterlimit:4;stroke-dasharray:none;stroke-opacity:1"
           d="m 31.550985,17.430264 c 0.110318,0.717068 0.992862,2.592476 -1.15834,2.261522"
           id="path3334" />
        <path
           style="display:inline;fill:none;stroke:#000000;stroke-width:0.999617;stroke-linecap:butt;stroke-linejoin:miter;stroke-miterlimit:4;stroke-dasharray:none;stroke-opacity:1"
           d="m 17.264787,14.72747 c 0.05516,0.441272 -0.882545,2.757953 0.220636,2.592476 1.103182,-0.165477 4.247248,-0.937704 3.916294,-0.937704 -0.330955,0 -2.537317,-0.937704 -2.537317,-0.937704 l -1.558244,-0.979074 z"
           id="path3336" />
        <path
           style="display:inline;fill:none;stroke:#000000;stroke-width:0.999617;stroke-linecap:round;stroke-linejoin:miter;stroke-miterlimit:4;stroke-dasharray:none;stroke-opacity:1"
           d="M 9.4973151,9.0780292 C 11.884359,9.2801329 14.154046,9.6794474 14.138714,9.6923319"
           id="path3338"
           sodipodi:nodetypes="cc" />
        <path
           style="display:inline;fill:none;stroke:#000000;stroke-width:0.999617;stroke-linecap:round;stroke-linejoin:miter;stroke-miterlimit:4;stroke-dasharray:none;stroke-opacity:1"
           d="M 9.6151371,12.925452 C 10.141682,12.769439 14.197219,10.608911 14.197219,10.608911"
           id="path3340"
           sodipodi:nodetypes="cc" />
        <ellipse
           style="display:inline;fill:#000000;fill-opacity:1;stroke:none;stroke-width:0.999617;stroke-linecap:round;stroke-linejoin:round;stroke-miterlimit:4;stroke-dasharray:none;stroke-opacity:1;paint-order:markers fill stroke"
           id="ellipse3342"
           cx="38.556187"
           cy="9.4184103"
           rx="0.6343292"
           ry="0.64811903" />
        <path
           style="fill:none;stroke:#000000;stroke-width:0.999617;stroke-linecap:butt;stroke-linejoin:miter;stroke-miterlimit:4;stroke-dasharray:none;stroke-opacity:1"
           d="m 14.333731,9.0487758 c -0.136512,-0.195016 -6.7085762,-4.777909 -6.6695729,-2.769238 0.039003,2.008672 1.2091037,2.067177 0.2145183,2.359703 -0.9945854,0.292526 -1.9891708,-0.0195 -1.5016289,1.033589 0.4875419,1.0530902 1.1505988,0.7020592 1.1896021,1.4821272 0.039003,0.780066 -0.23402,1.774653 0.3315285,2.203688 0.5655487,0.429038 0.838572,-0.0195 0.6630569,0.643557 -0.1755151,0.663056 -0.2145183,1.014087 0.3315285,1.345615 0.5460468,0.331528 1.1115955,0.58505 1.6576425,0.780066 0.546047,0.195016 0.70206,-0.136512 1.05309,-0.858073 0.351031,-0.721561 0.09751,-0.721561 0.604553,-1.170101 0.507043,-0.448538 1.072592,-1.267608 1.443123,-1.989169 0.370532,-0.721564 0.887876,-0.603505 0.741064,-0.833698 -0.216613,-0.339636 -0.243771,-2.0037969 -0.05851,-2.2280662 z"
           id="path3344"
           sodipodi:nodetypes="csssssssssssscc" />
        <path
           style="fill:none;stroke:#000000;stroke-width:0.999617;stroke-linecap:butt;stroke-linejoin:miter;stroke-miterlimit:4;stroke-dasharray:none;stroke-opacity:1"
           d="M 27.436116,17.278984 C 21.641756,17.020747 16.77383,15.513951 14.450741,11.388976 13.885192,9.5753208 14.333731,9.0487758 14.333731,9.0487758 c 0,0 6.162529,-4.173357 10.686917,-4.504886 4.524388,-0.331528 10.277382,-0.799568 14.782269,1.87216 4.504886,2.671731 5.538476,3.6078112 5.948011,3.9198372 0.409535,0.312025 -2.281698,0.175514 -1.794155,0.916577 0.487542,0.741066 1.072591,0 0.35103,1.014087 -0.721561,1.014087 -3.230585,4.437494 -11.271967,4.933926 -1.043066,0.06439 -2.074141,0.105545 -3.085566,0.116975"
           id="path3346"
           sodipodi:nodetypes="cccssssssc" />
        <path
           style="fill:none;stroke:#000000;stroke-width:0.999617;stroke-linecap:butt;stroke-linejoin:miter;stroke-miterlimit:4;stroke-dasharray:none;stroke-opacity:1"
           d="m 19.306658,6.1235238 c -0.039,-0.624051 -1.833158,-1.345615 -0.507044,-1.852657 1.326114,-0.507045 1.287111,-0.253521 1.618639,-1.014087 0.331529,-0.760566 -0.292525,-1.326116 1.696646,-1.443125 1.989171,-0.117009 0.955582,0.195016 1.1701,-0.312026 0.214519,-0.50704504 0.858074,-1.73565104 3.529803,-1.65764404 2.671729,0.07801 2.281696,-1.67714296 5.109439,-0.682558 2.827742,0.994587 0.214518,-1.89166296 2.184187,-0.58504996 1.969669,1.30661296 3.861331,1.34561596 4.348873,7.137612"
           id="path3348" />
      </g>
      <path
         style="fill:none;stroke:#000000;stroke-width:0.135416;stroke-linecap:round;stroke-linejoin:round;stroke-miterlimit:4;stroke-dasharray:none;stroke-opacity:1"
         d="m 11.804975,2.0586009 c 0,0 -0.0988,-0.747833 0.29579,-1.14244401"
         id="path3352" />
      <path
         style="fill:none;stroke:#000000;stroke-width:0.135416;stroke-linecap:round;stroke-linejoin:round;stroke-miterlimit:4;stroke-dasharray:none;stroke-opacity:1"
         d="m 13.087295,1.8463099 c 0,0 -0.0423,-0.43689 0.25367,-0.88787301"
         id="path3354" />
      <path
         style="fill:none;stroke:#000000;stroke-width:0.135416;stroke-linecap:round;stroke-linejoin:round;stroke-miterlimit:4;stroke-dasharray:none;stroke-opacity:1"
         d="m 14.242935,1.8322169 c 0,0 -0.0846,-0.535543 0.32414,-0.97243301"
         id="path3356" />
      <path
         style="fill:none;stroke:#000000;stroke-width:0.135203px;stroke-linecap:butt;stroke-linejoin:miter;stroke-opacity:1"
         d="m 15.440855,1.9308699 c 0,0 -0.0423,-0.422797 0.26777,-0.704661"
         id="path3358" />
      <path
         style="fill:none;stroke:#000000;stroke-width:0.135416;stroke-linecap:round;stroke-linejoin:round;stroke-miterlimit:4;stroke-dasharray:none;stroke-opacity:1"
         d="m 13.876505,2.3536669 c 0.13226,-2.29e-4 0.3633,0.180941 0.32823,0.366724 -0.0743,0.393573 -0.35641,0.41545 -0.35641,0.41545"
         id="path3360"
         sodipodi:nodetypes="csc" />
      <path
         style="fill:none;stroke:#000000;stroke-width:0.135416;stroke-linecap:round;stroke-linejoin:round;stroke-miterlimit:4;stroke-dasharray:none;stroke-opacity:1"
         d="m 13.045015,4.0871339 c 0.0546,-0.0032 0.4585,0.08235 0.43203,0.455219 -0.0135,0.190618 -0.25092,0.319316 -0.41089,0.291723"
         id="path3362"
         sodipodi:nodetypes="csc" />
      <path
         style="fill:none;stroke:#000000;stroke-width:0.135416;stroke-linecap:round;stroke-linejoin:round;stroke-miterlimit:4;stroke-dasharray:none;stroke-opacity:1"
         d="m 16.244175,3.0160479 c 0,0 0.29595,0 0.28187,0.450984 -0.0141,0.450983 -0.40871,0.338237 -0.40871,0.338237"
         id="path3364" />
      <path
         style="fill:none;stroke:#000000;stroke-width:0.135416;stroke-linecap:round;stroke-linejoin:round;stroke-miterlimit:4;stroke-dasharray:none;stroke-opacity:1"
         d="m 15.647375,3.5373549 c 0.13224,-2.28e-4 0.36329,0.180941 0.32822,0.366724 -0.0743,0.393574 -0.35641,0.415451 -0.35641,0.415451"
         id="path3366"
         sodipodi:nodetypes="csc" />
      <path
         style="fill:none;stroke:#000000;stroke-width:0.0946419;stroke-linecap:round;stroke-linejoin:round;stroke-miterlimit:4;stroke-dasharray:none;stroke-opacity:1"
         d="m 7.9685352,7.9261509 c 0,0 0.15945,-0.169412 0.28402,-0.169412"
         id="path3368" />
    </g>
  </g>
</svg>
