<?xml version="1.0" encoding="UTF-8" standalone="no"?>
<svg
   xmlns:dc="http://purl.org/dc/elements/1.1/"
   xmlns:cc="http://creativecommons.org/ns#"
   xmlns:rdf="http://www.w3.org/1999/02/22-rdf-syntax-ns#"
   xmlns:svg="http://www.w3.org/2000/svg"
   xmlns="http://www.w3.org/2000/svg"
   xmlns:sodipodi="http://sodipodi.sourceforge.net/DTD/sodipodi-0.dtd"
   xmlns:inkscape="http://www.inkscape.org/namespaces/inkscape"
   width="211.25171mm"
   height="66.274666mm"
   viewBox="0 0 211.25171 66.274674"
   version="1.1"
   id="svg8"
   inkscape:version="1.0.2-2 (e86c870879, 2021-01-15)"
   sodipodi:docname="wave.svg">
  <defs
     id="defs2" />
  <sodipodi:namedview
     id="base"
     pagecolor="#ffffff"
     bordercolor="#666666"
     borderopacity="1.0"
     inkscape:pageopacity="0.0"
     inkscape:pageshadow="2"
     inkscape:zoom="0.70710678"
     inkscape:cx="404.02839"
     inkscape:cy="251.14137"
     inkscape:document-units="mm"
     inkscape:current-layer="layer3"
     inkscape:document-rotation="0"
     showgrid="false"
     fit-margin-top="0"
     fit-margin-left="0"
     fit-margin-right="0"
     fit-margin-bottom="0"
     inkscape:window-width="1920"
     inkscape:window-height="991"
     inkscape:window-x="-9"
     inkscape:window-y="-9"
     inkscape:window-maximized="1" />
  <metadata
     id="metadata5">
    <rdf:RDF>
      <cc:Work
         rdf:about="">
        <dc:format>image/svg+xml</dc:format>
        <dc:type
           rdf:resource="http://purl.org/dc/dcmitype/StillImage" />
        <dc:title />
      </cc:Work>
    </rdf:RDF>
  </metadata>
  <g
     inkscape:label="Layer 1"
     inkscape:groupmode="layer"
     id="layer1"
     transform="translate(-7.5093e-4,-4.3798228)" />
  <g
     inkscape:groupmode="layer"
     id="layer2"
     inkscape:label="Layer 2"
     style="display:none"
     transform="translate(-0.18973902,-0.22208469)">
    <path
       style="fill:none;stroke:#000000;stroke-width:0.264583px;stroke-linecap:butt;stroke-linejoin:miter;stroke-opacity:1"
       d="m -0.13363476,22.584275 c 0,0 2.67269526,1.202713 4.00904286,1.737252 1.3363477,0.534539 4.2763122,-0.133635 5.8799296,-0.534539 1.6036173,-0.400905 2.8063293,-3.741774 6.6817383,-3.207235 3.875408,0.534539 4.009042,2.271791 4.009042,3.340869 0,1.069078 3.741774,-0.935443 5.345391,0.133635 1.603618,1.069078 1.870887,1.603617 4.810852,2.004522 2.939963,0.400903 3.875408,0.935444 6.548102,0 2.672696,-0.935444 8.953529,-1.069079 12.561668,-0.53454 3.608138,0.53454 3.608138,-1.069078 7.750817,-0.534539 4.142677,0.534539 4.677217,1.336348 6.548102,0.534539 1.870887,-0.801808 3.875407,-2.672695 8.285355,-1.603617 4.409948,1.069078 10.958052,2.004522 12.160764,1.336348 1.202713,-0.668174 2.939965,-0.534539 4.142679,-1.069078 1.202711,-0.534539 2.53906,-2.004522 3.474503,-2.138157 0.935442,-0.133634 1.336347,1.069079 1.336347,1.069079 0,0 -1.870888,1.336347 -1.202712,1.603617 0.668174,0.267269 3.741772,1.469982 6.013564,1.737251 2.27179,0.267269 2.93997,1.069078 4.14268,0.133636 1.20271,-0.935444 2.00452,-0.400905 2.00452,-1.469983 0,-1.069078 -0.53454,-5.879929 1.33635,-4.944486 1.87088,0.935443 1.73725,3.474504 3.34087,3.073599 1.60361,-0.400904 1.73725,-1.336347 2.27179,-0.400904 0.53454,0.935444 1.06907,-3.474504 4.40994,-2.80633 3.34087,0.668174 7.88445,5.211756 11.09169,3.608139 3.20723,-1.603618 5.87993,-2.672696 8.28535,-1.336348 2.40543,1.336348 1.5368,-0.601356 2.20497,-0.868626 0.66818,-0.267269 3.47451,0.133635 3.0736,-0.668173 -0.4009,-0.801809 -1.40316,-6.882191 0.46773,-7.41673 1.87089,-0.534539 2.40542,0.668174 3.0736,0.668174 0.66817,0 0.26727,0.26727 2.27179,0.935443 2.00452,0.668174 2.53906,1.336348 3.20723,1.469983 0.66818,0.133634 1.06908,0.534539 4.54358,1.603617 3.47451,1.069078 3.74178,1.870886 5.34539,1.870886 1.60362,0 2.6727,-0.267269 4.54359,0.668174 1.87088,0.935443 4.81085,2.138156 6.68174,2.004522 1.87088,-0.133635 4.00904,-2.939965 6.14719,-2.939965 2.13816,0 3.87541,-0.801809 9.88898,1.336347 6.01356,2.138157 8.41899,-1.202712 9.6217,-1.069078 1.20271,0.133635 2.80633,0.534539 4.00904,0.534539 1.20272,0 1.20272,0.668174 2.13816,0.534539 0.93544,-0.133634 2.80633,-2.806329 4.40995,-3.875407 1.60361,-1.069079 4.27631,5.479025 4.27631,5.479025 l 0.058,186.849055 -210.91070713,-0.62498 z"
       id="path869"
       sodipodi:nodetypes="csssssssssssssscsssssssssssssssssssssssssscccc" />
  </g>
  <g
     inkscape:groupmode="layer"
     id="layer3"
     inkscape:label="Layer 3"
     style="opacity:1"
     transform="translate(-0.18973902,-0.22208469)">
    <path
       style="fill:#c4f5f8;fill-opacity:1;stroke:none;stroke-width:0.266209px;stroke-linecap:butt;stroke-linejoin:miter;stroke-opacity:1"
       d="m -1.9269277,8.3337141 c 0,0 16.2731157,-7.1322248 29.7955727,-6.0081699 12.422909,1.0326549 16.743862,2.7235523 32.75572,4.5061269 14.312265,1.5933619 24.568965,-7.2148482 37.026096,-3.56735 12.422899,3.6374752 32.804239,-5.1447288 43.286069,-0.1877552 9.87224,4.6686898 26.01047,2.6285741 30.47494,1.126532 4.46449,-1.5020427 12.23225,-3.70255791 15.72276,-3.94286206 3.51405,-0.24192519 7.13317,0.70014525 11.16056,1.87962766 4.16594,1.3275727 7.25489,3.2918404 9.73404,3.8074367 2.97335,0.5840897 5.53084,-1.7344968 5.50408,-1.7442023 l 0.65617,62.2936531 -215.7671518,-0.61844 z"
       id="path872"
       sodipodi:nodetypes="csssssscccccc" />
    <path
       style="fill:#67dbeb;fill-opacity:1;stroke:none;stroke-width:0.266209px;stroke-linecap:butt;stroke-linejoin:miter;stroke-opacity:1"
       d="m -1.7328197,12.088818 c 0,0 17.2207767,-11.85331476 37.0197897,-8.0982082 19.799012,3.7551059 35.091322,5.0941251 40.914559,3.2165729 5.82324,-1.8775533 13.293729,-2.4944405 27.369221,0.6571436 10.48182,2.3469387 24.06075,-4.3052371 31.05114,-2.3343012 20.85982,5.8814179 34.53324,1.1765163 42.84171,-1.2995296 7.67156,-2.9428355 11.48372,-2.8732067 18.8276,-0.8835621 4.65219,1.1682473 8.4975,4.2518537 13.60124,3.8058689 4.19437,-1.3274318 3.7091,-1.609065 3.7091,-1.609065 l 0.58754,60.9530137 -215.9188014,0.52717 z"
       id="path874"
       sodipodi:nodetypes="cssssccccccc" />
  </g>
</svg>
